<mxfile host="65bd71144e">
    <diagram id="og0IAFWEF6hscBVz1pQR" name="Page-1">
        <mxGraphModel dx="1431" dy="924" grid="1" gridSize="10" guides="1" tooltips="1" connect="1" arrows="1" fold="1" page="1" pageScale="1" pageWidth="850" pageHeight="1100" math="0" shadow="0">
            <root>
                <mxCell id="0"/>
                <mxCell id="1" parent="0"/>
                <mxCell id="592" value="" style="endArrow=none;html=1;" edge="1" parent="1" source="256">
                    <mxGeometry width="50" height="50" relative="1" as="geometry">
                        <mxPoint x="700" y="560" as="sourcePoint"/>
                        <mxPoint x="750" y="510" as="targetPoint"/>
                    </mxGeometry>
                </mxCell>
                <mxCell id="595" value="" style="group" vertex="1" connectable="0" parent="1">
                    <mxGeometry x="335" y="250" width="1065" height="520.9600000000002" as="geometry"/>
                </mxCell>
                <mxCell id="594" value="" style="group" vertex="1" connectable="0" parent="595">
                    <mxGeometry y="20" width="1065" height="490" as="geometry"/>
                </mxCell>
                <mxCell id="591" value="" style="rounded=0;whiteSpace=wrap;html=1;" vertex="1" parent="594">
                    <mxGeometry x="25" width="1040" height="490" as="geometry"/>
                </mxCell>
                <mxCell id="593" value="Kit" style="text;html=1;strokeColor=none;fillColor=none;align=center;verticalAlign=middle;whiteSpace=wrap;rounded=0;rotation=-90;" vertex="1" parent="594">
                    <mxGeometry x="-15" y="230" width="60" height="30" as="geometry"/>
                </mxCell>
                <mxCell id="590" value="" style="group" vertex="1" connectable="0" parent="595">
                    <mxGeometry x="65" width="920" height="520.9600000000002" as="geometry"/>
                </mxCell>
                <mxCell id="587" value="" style="group" vertex="1" connectable="0" parent="590">
                    <mxGeometry width="920" height="520.9600000000002" as="geometry"/>
                </mxCell>
                <mxCell id="585" value="" style="group" vertex="1" connectable="0" parent="587">
                    <mxGeometry x="30" width="890" height="510.96" as="geometry"/>
                </mxCell>
                <mxCell id="349" value="" style="rounded=0;whiteSpace=wrap;html=1;" vertex="1" parent="585">
                    <mxGeometry y="88.50781326781325" width="890" height="362.89772727272714" as="geometry"/>
                </mxCell>
                <mxCell id="372" value="" style="group" vertex="1" connectable="0" parent="585">
                    <mxGeometry x="280" y="19.61609336609336" width="120" height="78.46437346437344" as="geometry"/>
                </mxCell>
                <mxCell id="351" value="" style="endArrow=none;html=1;" edge="1" parent="372">
                    <mxGeometry width="50" height="50" relative="1" as="geometry">
                        <mxPoint y="78.46437346437344" as="sourcePoint"/>
                        <mxPoint as="targetPoint"/>
                    </mxGeometry>
                </mxCell>
                <mxCell id="352" value="HEX2[6]" style="edgeLabel;html=1;align=center;verticalAlign=middle;resizable=0;points=[];rotation=-90;" vertex="1" connectable="0" parent="351">
                    <mxGeometry x="0.6458" y="3" relative="1" as="geometry">
                        <mxPoint x="3" y="26" as="offset"/>
                    </mxGeometry>
                </mxCell>
                <mxCell id="353" value="" style="endArrow=none;html=1;" edge="1" parent="372">
                    <mxGeometry width="50" height="50" relative="1" as="geometry">
                        <mxPoint x="40" y="78.46437346437344" as="sourcePoint"/>
                        <mxPoint x="40" as="targetPoint"/>
                    </mxGeometry>
                </mxCell>
                <mxCell id="354" value="HEX2[4]" style="edgeLabel;html=1;align=center;verticalAlign=middle;resizable=0;points=[];rotation=-90;" vertex="1" connectable="0" parent="353">
                    <mxGeometry x="0.6458" y="3" relative="1" as="geometry">
                        <mxPoint x="3" y="26" as="offset"/>
                    </mxGeometry>
                </mxCell>
                <mxCell id="355" value="" style="endArrow=none;html=1;" edge="1" parent="372">
                    <mxGeometry width="50" height="50" relative="1" as="geometry">
                        <mxPoint x="20" y="78.46437346437344" as="sourcePoint"/>
                        <mxPoint x="20" as="targetPoint"/>
                    </mxGeometry>
                </mxCell>
                <mxCell id="356" value="HEX2[5]" style="edgeLabel;html=1;align=center;verticalAlign=middle;resizable=0;points=[];rotation=-90;" vertex="1" connectable="0" parent="355">
                    <mxGeometry x="0.6458" y="3" relative="1" as="geometry">
                        <mxPoint x="3" y="26" as="offset"/>
                    </mxGeometry>
                </mxCell>
                <mxCell id="357" value="" style="endArrow=none;html=1;" edge="1" parent="372">
                    <mxGeometry width="50" height="50" relative="1" as="geometry">
                        <mxPoint x="60" y="78.46437346437344" as="sourcePoint"/>
                        <mxPoint x="60" as="targetPoint"/>
                    </mxGeometry>
                </mxCell>
                <mxCell id="358" value="HEX2[3]" style="edgeLabel;html=1;align=center;verticalAlign=middle;resizable=0;points=[];rotation=-90;" vertex="1" connectable="0" parent="357">
                    <mxGeometry x="0.6458" y="3" relative="1" as="geometry">
                        <mxPoint x="3" y="26" as="offset"/>
                    </mxGeometry>
                </mxCell>
                <mxCell id="359" value="" style="endArrow=none;html=1;" edge="1" parent="372">
                    <mxGeometry width="50" height="50" relative="1" as="geometry">
                        <mxPoint x="80" y="78.46437346437344" as="sourcePoint"/>
                        <mxPoint x="80" as="targetPoint"/>
                    </mxGeometry>
                </mxCell>
                <mxCell id="360" value="HEX2[2]" style="edgeLabel;html=1;align=center;verticalAlign=middle;resizable=0;points=[];rotation=-90;" vertex="1" connectable="0" parent="359">
                    <mxGeometry x="0.6458" y="3" relative="1" as="geometry">
                        <mxPoint x="3" y="26" as="offset"/>
                    </mxGeometry>
                </mxCell>
                <mxCell id="361" value="" style="endArrow=none;html=1;" edge="1" parent="372">
                    <mxGeometry width="50" height="50" relative="1" as="geometry">
                        <mxPoint x="100" y="78.46437346437344" as="sourcePoint"/>
                        <mxPoint x="100" as="targetPoint"/>
                    </mxGeometry>
                </mxCell>
                <mxCell id="362" value="HEX2[1]" style="edgeLabel;html=1;align=center;verticalAlign=middle;resizable=0;points=[];rotation=-90;" vertex="1" connectable="0" parent="361">
                    <mxGeometry x="0.6458" y="3" relative="1" as="geometry">
                        <mxPoint x="3" y="26" as="offset"/>
                    </mxGeometry>
                </mxCell>
                <mxCell id="363" value="" style="endArrow=none;html=1;" edge="1" parent="372">
                    <mxGeometry width="50" height="50" relative="1" as="geometry">
                        <mxPoint x="120" y="78.46437346437344" as="sourcePoint"/>
                        <mxPoint x="120" as="targetPoint"/>
                    </mxGeometry>
                </mxCell>
                <mxCell id="364" value="HEX2[0]" style="edgeLabel;html=1;align=center;verticalAlign=middle;resizable=0;points=[];rotation=-90;" vertex="1" connectable="0" parent="363">
                    <mxGeometry x="0.6458" y="3" relative="1" as="geometry">
                        <mxPoint x="3" y="26" as="offset"/>
                    </mxGeometry>
                </mxCell>
                <mxCell id="373" value="" style="group" vertex="1" connectable="0" parent="585">
                    <mxGeometry x="80" y="19.61609336609336" width="120" height="78.46437346437344" as="geometry"/>
                </mxCell>
                <mxCell id="374" value="" style="endArrow=none;html=1;" edge="1" parent="373">
                    <mxGeometry width="50" height="50" relative="1" as="geometry">
                        <mxPoint y="78.46437346437344" as="sourcePoint"/>
                        <mxPoint as="targetPoint"/>
                    </mxGeometry>
                </mxCell>
                <mxCell id="375" value="HEX3[6]" style="edgeLabel;html=1;align=center;verticalAlign=middle;resizable=0;points=[];rotation=-90;" vertex="1" connectable="0" parent="374">
                    <mxGeometry x="0.6458" y="3" relative="1" as="geometry">
                        <mxPoint x="3" y="26" as="offset"/>
                    </mxGeometry>
                </mxCell>
                <mxCell id="376" value="" style="endArrow=none;html=1;" edge="1" parent="373">
                    <mxGeometry width="50" height="50" relative="1" as="geometry">
                        <mxPoint x="40" y="78.46437346437344" as="sourcePoint"/>
                        <mxPoint x="40" as="targetPoint"/>
                    </mxGeometry>
                </mxCell>
                <mxCell id="377" value="HEX3[4]" style="edgeLabel;html=1;align=center;verticalAlign=middle;resizable=0;points=[];rotation=-90;" vertex="1" connectable="0" parent="376">
                    <mxGeometry x="0.6458" y="3" relative="1" as="geometry">
                        <mxPoint x="3" y="26" as="offset"/>
                    </mxGeometry>
                </mxCell>
                <mxCell id="378" value="" style="endArrow=none;html=1;" edge="1" parent="373">
                    <mxGeometry width="50" height="50" relative="1" as="geometry">
                        <mxPoint x="20" y="78.46437346437344" as="sourcePoint"/>
                        <mxPoint x="20" as="targetPoint"/>
                    </mxGeometry>
                </mxCell>
                <mxCell id="379" value="HEX3[5]" style="edgeLabel;html=1;align=center;verticalAlign=middle;resizable=0;points=[];rotation=-90;" vertex="1" connectable="0" parent="378">
                    <mxGeometry x="0.6458" y="3" relative="1" as="geometry">
                        <mxPoint x="3" y="26" as="offset"/>
                    </mxGeometry>
                </mxCell>
                <mxCell id="380" value="" style="endArrow=none;html=1;" edge="1" parent="373">
                    <mxGeometry width="50" height="50" relative="1" as="geometry">
                        <mxPoint x="60" y="78.46437346437344" as="sourcePoint"/>
                        <mxPoint x="60" as="targetPoint"/>
                    </mxGeometry>
                </mxCell>
                <mxCell id="381" value="HEX3[3]" style="edgeLabel;html=1;align=center;verticalAlign=middle;resizable=0;points=[];rotation=-90;" vertex="1" connectable="0" parent="380">
                    <mxGeometry x="0.6458" y="3" relative="1" as="geometry">
                        <mxPoint x="3" y="26" as="offset"/>
                    </mxGeometry>
                </mxCell>
                <mxCell id="382" value="" style="endArrow=none;html=1;" edge="1" parent="373">
                    <mxGeometry width="50" height="50" relative="1" as="geometry">
                        <mxPoint x="80" y="78.46437346437344" as="sourcePoint"/>
                        <mxPoint x="80" as="targetPoint"/>
                    </mxGeometry>
                </mxCell>
                <mxCell id="383" value="HEX3[2]" style="edgeLabel;html=1;align=center;verticalAlign=middle;resizable=0;points=[];rotation=-90;" vertex="1" connectable="0" parent="382">
                    <mxGeometry x="0.6458" y="3" relative="1" as="geometry">
                        <mxPoint x="3" y="26" as="offset"/>
                    </mxGeometry>
                </mxCell>
                <mxCell id="384" value="" style="endArrow=none;html=1;" edge="1" parent="373">
                    <mxGeometry width="50" height="50" relative="1" as="geometry">
                        <mxPoint x="100" y="78.46437346437344" as="sourcePoint"/>
                        <mxPoint x="100" as="targetPoint"/>
                    </mxGeometry>
                </mxCell>
                <mxCell id="385" value="HEX3[1]" style="edgeLabel;html=1;align=center;verticalAlign=middle;resizable=0;points=[];rotation=-90;" vertex="1" connectable="0" parent="384">
                    <mxGeometry x="0.6458" y="3" relative="1" as="geometry">
                        <mxPoint x="3" y="26" as="offset"/>
                    </mxGeometry>
                </mxCell>
                <mxCell id="386" value="" style="endArrow=none;html=1;" edge="1" parent="373">
                    <mxGeometry width="50" height="50" relative="1" as="geometry">
                        <mxPoint x="120" y="78.46437346437344" as="sourcePoint"/>
                        <mxPoint x="120" as="targetPoint"/>
                    </mxGeometry>
                </mxCell>
                <mxCell id="387" value="HEX3[0]" style="edgeLabel;html=1;align=center;verticalAlign=middle;resizable=0;points=[];rotation=-90;" vertex="1" connectable="0" parent="386">
                    <mxGeometry x="0.6458" y="3" relative="1" as="geometry">
                        <mxPoint x="3" y="26" as="offset"/>
                    </mxGeometry>
                </mxCell>
                <mxCell id="527" value="" style="group" vertex="1" connectable="0" parent="585">
                    <mxGeometry x="80" y="441.3621007371006" width="120.00000000000011" height="69.12711302211312" as="geometry"/>
                </mxCell>
                <mxCell id="418" value="" style="endArrow=none;html=1;" edge="1" parent="527">
                    <mxGeometry width="50" height="50" relative="1" as="geometry">
                        <mxPoint as="sourcePoint"/>
                        <mxPoint y="68.65632678132675" as="targetPoint"/>
                    </mxGeometry>
                </mxCell>
                <mxCell id="520" value="SW[15]" style="edgeLabel;html=1;align=center;verticalAlign=middle;resizable=0;points=[];rotation=-90;" vertex="1" connectable="0" parent="418">
                    <mxGeometry x="0.266" relative="1" as="geometry">
                        <mxPoint y="-4" as="offset"/>
                    </mxGeometry>
                </mxCell>
                <mxCell id="521" value="" style="endArrow=none;html=1;" edge="1" parent="527">
                    <mxGeometry width="50" height="50" relative="1" as="geometry">
                        <mxPoint x="40.000000000000114" y="0.4707862407862584" as="sourcePoint"/>
                        <mxPoint x="40.000000000000114" y="69.12711302211312" as="targetPoint"/>
                    </mxGeometry>
                </mxCell>
                <mxCell id="522" value="SW[14]" style="edgeLabel;html=1;align=center;verticalAlign=middle;resizable=0;points=[];rotation=-90;" vertex="1" connectable="0" parent="521">
                    <mxGeometry x="0.266" relative="1" as="geometry">
                        <mxPoint y="-4" as="offset"/>
                    </mxGeometry>
                </mxCell>
                <mxCell id="523" value="" style="endArrow=none;html=1;" edge="1" parent="527">
                    <mxGeometry width="50" height="50" relative="1" as="geometry">
                        <mxPoint x="80.00000000000011" y="0.4707862407862584" as="sourcePoint"/>
                        <mxPoint x="80.00000000000011" y="69.12711302211312" as="targetPoint"/>
                    </mxGeometry>
                </mxCell>
                <mxCell id="524" value="SW[13]" style="edgeLabel;html=1;align=center;verticalAlign=middle;resizable=0;points=[];rotation=-90;" vertex="1" connectable="0" parent="523">
                    <mxGeometry x="0.266" relative="1" as="geometry">
                        <mxPoint y="-4" as="offset"/>
                    </mxGeometry>
                </mxCell>
                <mxCell id="525" value="" style="endArrow=none;html=1;" edge="1" parent="527">
                    <mxGeometry width="50" height="50" relative="1" as="geometry">
                        <mxPoint x="120.00000000000011" y="0.4707862407862584" as="sourcePoint"/>
                        <mxPoint x="120.00000000000011" y="69.12711302211312" as="targetPoint"/>
                    </mxGeometry>
                </mxCell>
                <mxCell id="526" value="SW[12]" style="edgeLabel;html=1;align=center;verticalAlign=middle;resizable=0;points=[];rotation=-90;" vertex="1" connectable="0" parent="525">
                    <mxGeometry x="0.266" relative="1" as="geometry">
                        <mxPoint y="-4" as="offset"/>
                    </mxGeometry>
                </mxCell>
                <mxCell id="528" value="" style="group" vertex="1" connectable="0" parent="585">
                    <mxGeometry x="280" y="441.83288697788686" width="120.00000000000011" height="69.12711302211312" as="geometry"/>
                </mxCell>
                <mxCell id="529" value="" style="endArrow=none;html=1;" edge="1" parent="528">
                    <mxGeometry width="50" height="50" relative="1" as="geometry">
                        <mxPoint as="sourcePoint"/>
                        <mxPoint y="68.65632678132675" as="targetPoint"/>
                    </mxGeometry>
                </mxCell>
                <mxCell id="530" value="SW[11]" style="edgeLabel;html=1;align=center;verticalAlign=middle;resizable=0;points=[];rotation=-90;" vertex="1" connectable="0" parent="529">
                    <mxGeometry x="0.266" relative="1" as="geometry">
                        <mxPoint y="-4" as="offset"/>
                    </mxGeometry>
                </mxCell>
                <mxCell id="531" value="" style="endArrow=none;html=1;" edge="1" parent="528">
                    <mxGeometry width="50" height="50" relative="1" as="geometry">
                        <mxPoint x="40.000000000000114" y="0.4707862407862584" as="sourcePoint"/>
                        <mxPoint x="40.000000000000114" y="69.12711302211312" as="targetPoint"/>
                    </mxGeometry>
                </mxCell>
                <mxCell id="532" value="SW[10]" style="edgeLabel;html=1;align=center;verticalAlign=middle;resizable=0;points=[];rotation=-90;" vertex="1" connectable="0" parent="531">
                    <mxGeometry x="0.266" relative="1" as="geometry">
                        <mxPoint y="-4" as="offset"/>
                    </mxGeometry>
                </mxCell>
                <mxCell id="533" value="" style="endArrow=none;html=1;" edge="1" parent="528">
                    <mxGeometry width="50" height="50" relative="1" as="geometry">
                        <mxPoint x="80.00000000000011" y="0.4707862407862584" as="sourcePoint"/>
                        <mxPoint x="80.00000000000011" y="69.12711302211312" as="targetPoint"/>
                    </mxGeometry>
                </mxCell>
                <mxCell id="534" value="SW[9]" style="edgeLabel;html=1;align=center;verticalAlign=middle;resizable=0;points=[];rotation=-90;" vertex="1" connectable="0" parent="533">
                    <mxGeometry x="0.266" relative="1" as="geometry">
                        <mxPoint y="-4" as="offset"/>
                    </mxGeometry>
                </mxCell>
                <mxCell id="535" value="" style="endArrow=none;html=1;" edge="1" parent="528">
                    <mxGeometry width="50" height="50" relative="1" as="geometry">
                        <mxPoint x="120.00000000000011" y="0.4707862407862584" as="sourcePoint"/>
                        <mxPoint x="120.00000000000011" y="69.12711302211312" as="targetPoint"/>
                    </mxGeometry>
                </mxCell>
                <mxCell id="536" value="SW[8]" style="edgeLabel;html=1;align=center;verticalAlign=middle;resizable=0;points=[];rotation=-90;" vertex="1" connectable="0" parent="535">
                    <mxGeometry x="0.266" relative="1" as="geometry">
                        <mxPoint y="-4" as="offset"/>
                    </mxGeometry>
                </mxCell>
                <mxCell id="537" value="" style="group" vertex="1" connectable="0" parent="585">
                    <mxGeometry x="480" y="441.83288697788686" width="120.00000000000011" height="69.12711302211312" as="geometry"/>
                </mxCell>
                <mxCell id="538" value="" style="endArrow=none;html=1;" edge="1" parent="537">
                    <mxGeometry width="50" height="50" relative="1" as="geometry">
                        <mxPoint as="sourcePoint"/>
                        <mxPoint y="68.65632678132675" as="targetPoint"/>
                    </mxGeometry>
                </mxCell>
                <mxCell id="539" value="SW[7]" style="edgeLabel;html=1;align=center;verticalAlign=middle;resizable=0;points=[];rotation=-90;" vertex="1" connectable="0" parent="538">
                    <mxGeometry x="0.266" relative="1" as="geometry">
                        <mxPoint y="-4" as="offset"/>
                    </mxGeometry>
                </mxCell>
                <mxCell id="540" value="" style="endArrow=none;html=1;" edge="1" parent="537">
                    <mxGeometry width="50" height="50" relative="1" as="geometry">
                        <mxPoint x="40.000000000000114" y="0.4707862407862584" as="sourcePoint"/>
                        <mxPoint x="40.000000000000114" y="69.12711302211312" as="targetPoint"/>
                    </mxGeometry>
                </mxCell>
                <mxCell id="541" value="SW[6]" style="edgeLabel;html=1;align=center;verticalAlign=middle;resizable=0;points=[];rotation=-90;" vertex="1" connectable="0" parent="540">
                    <mxGeometry x="0.266" relative="1" as="geometry">
                        <mxPoint y="-4" as="offset"/>
                    </mxGeometry>
                </mxCell>
                <mxCell id="542" value="" style="endArrow=none;html=1;" edge="1" parent="537">
                    <mxGeometry width="50" height="50" relative="1" as="geometry">
                        <mxPoint x="80.00000000000011" y="0.4707862407862584" as="sourcePoint"/>
                        <mxPoint x="80.00000000000011" y="69.12711302211312" as="targetPoint"/>
                    </mxGeometry>
                </mxCell>
                <mxCell id="543" value="SW[5]" style="edgeLabel;html=1;align=center;verticalAlign=middle;resizable=0;points=[];rotation=-90;" vertex="1" connectable="0" parent="542">
                    <mxGeometry x="0.266" relative="1" as="geometry">
                        <mxPoint y="-4" as="offset"/>
                    </mxGeometry>
                </mxCell>
                <mxCell id="544" value="" style="endArrow=none;html=1;" edge="1" parent="537">
                    <mxGeometry width="50" height="50" relative="1" as="geometry">
                        <mxPoint x="120.00000000000011" y="0.4707862407862584" as="sourcePoint"/>
                        <mxPoint x="120.00000000000011" y="69.12711302211312" as="targetPoint"/>
                    </mxGeometry>
                </mxCell>
                <mxCell id="545" value="SW[4]" style="edgeLabel;html=1;align=center;verticalAlign=middle;resizable=0;points=[];rotation=-90;" vertex="1" connectable="0" parent="544">
                    <mxGeometry x="0.266" relative="1" as="geometry">
                        <mxPoint y="-4" as="offset"/>
                    </mxGeometry>
                </mxCell>
                <mxCell id="546" value="" style="group" vertex="1" connectable="0" parent="585">
                    <mxGeometry x="680" y="441.3621007371006" width="120.00000000000011" height="69.12711302211312" as="geometry"/>
                </mxCell>
                <mxCell id="547" value="" style="endArrow=none;html=1;" edge="1" parent="546">
                    <mxGeometry width="50" height="50" relative="1" as="geometry">
                        <mxPoint as="sourcePoint"/>
                        <mxPoint y="68.65632678132675" as="targetPoint"/>
                    </mxGeometry>
                </mxCell>
                <mxCell id="548" value="SW[3]" style="edgeLabel;html=1;align=center;verticalAlign=middle;resizable=0;points=[];rotation=-90;" vertex="1" connectable="0" parent="547">
                    <mxGeometry x="0.266" relative="1" as="geometry">
                        <mxPoint y="-4" as="offset"/>
                    </mxGeometry>
                </mxCell>
                <mxCell id="549" value="" style="endArrow=none;html=1;" edge="1" parent="546">
                    <mxGeometry width="50" height="50" relative="1" as="geometry">
                        <mxPoint x="40.000000000000114" y="0.4707862407862584" as="sourcePoint"/>
                        <mxPoint x="40.000000000000114" y="69.12711302211312" as="targetPoint"/>
                    </mxGeometry>
                </mxCell>
                <mxCell id="550" value="SW[2]" style="edgeLabel;html=1;align=center;verticalAlign=middle;resizable=0;points=[];rotation=-90;" vertex="1" connectable="0" parent="549">
                    <mxGeometry x="0.266" relative="1" as="geometry">
                        <mxPoint y="-4" as="offset"/>
                    </mxGeometry>
                </mxCell>
                <mxCell id="551" value="" style="endArrow=none;html=1;" edge="1" parent="546">
                    <mxGeometry width="50" height="50" relative="1" as="geometry">
                        <mxPoint x="80.00000000000011" y="0.4707862407862584" as="sourcePoint"/>
                        <mxPoint x="80.00000000000011" y="69.12711302211312" as="targetPoint"/>
                    </mxGeometry>
                </mxCell>
                <mxCell id="552" value="SW[1]" style="edgeLabel;html=1;align=center;verticalAlign=middle;resizable=0;points=[];rotation=-90;" vertex="1" connectable="0" parent="551">
                    <mxGeometry x="0.266" relative="1" as="geometry">
                        <mxPoint y="-4" as="offset"/>
                    </mxGeometry>
                </mxCell>
                <mxCell id="553" value="" style="endArrow=none;html=1;" edge="1" parent="546">
                    <mxGeometry width="50" height="50" relative="1" as="geometry">
                        <mxPoint x="120.00000000000011" y="0.4707862407862584" as="sourcePoint"/>
                        <mxPoint x="120.00000000000011" y="69.12711302211312" as="targetPoint"/>
                    </mxGeometry>
                </mxCell>
                <mxCell id="554" value="SW[0]" style="edgeLabel;html=1;align=center;verticalAlign=middle;resizable=0;points=[];rotation=-90;" vertex="1" connectable="0" parent="553">
                    <mxGeometry x="0.266" relative="1" as="geometry">
                        <mxPoint y="-4" as="offset"/>
                    </mxGeometry>
                </mxCell>
                <mxCell id="555" value="x" style="group;rotation=90;" vertex="1" connectable="0" parent="585">
                    <mxGeometry x="480" y="19.61609336609336" width="120" height="78.46437346437344" as="geometry"/>
                </mxCell>
                <mxCell id="556" value="" style="endArrow=none;html=1;" edge="1" parent="555">
                    <mxGeometry width="50" height="50" relative="1" as="geometry">
                        <mxPoint y="78.46437346437344" as="sourcePoint"/>
                        <mxPoint as="targetPoint"/>
                    </mxGeometry>
                </mxCell>
                <mxCell id="557" value="HEX1[6]" style="edgeLabel;html=1;align=center;verticalAlign=middle;resizable=0;points=[];rotation=-90;" vertex="1" connectable="0" parent="556">
                    <mxGeometry x="0.6458" y="3" relative="1" as="geometry">
                        <mxPoint x="3" y="26" as="offset"/>
                    </mxGeometry>
                </mxCell>
                <mxCell id="558" value="" style="endArrow=none;html=1;" edge="1" parent="555">
                    <mxGeometry width="50" height="50" relative="1" as="geometry">
                        <mxPoint x="40" y="78.46437346437344" as="sourcePoint"/>
                        <mxPoint x="40" as="targetPoint"/>
                    </mxGeometry>
                </mxCell>
                <mxCell id="559" value="HEX1[4]" style="edgeLabel;html=1;align=center;verticalAlign=middle;resizable=0;points=[];rotation=-90;" vertex="1" connectable="0" parent="558">
                    <mxGeometry x="0.6458" y="3" relative="1" as="geometry">
                        <mxPoint x="3" y="26" as="offset"/>
                    </mxGeometry>
                </mxCell>
                <mxCell id="560" value="" style="endArrow=none;html=1;" edge="1" parent="555">
                    <mxGeometry width="50" height="50" relative="1" as="geometry">
                        <mxPoint x="20" y="78.46437346437344" as="sourcePoint"/>
                        <mxPoint x="20" as="targetPoint"/>
                    </mxGeometry>
                </mxCell>
                <mxCell id="561" value="HEX1[5]" style="edgeLabel;html=1;align=center;verticalAlign=middle;resizable=0;points=[];rotation=-90;" vertex="1" connectable="0" parent="560">
                    <mxGeometry x="0.6458" y="3" relative="1" as="geometry">
                        <mxPoint x="3" y="26" as="offset"/>
                    </mxGeometry>
                </mxCell>
                <mxCell id="562" value="" style="endArrow=none;html=1;" edge="1" parent="555">
                    <mxGeometry width="50" height="50" relative="1" as="geometry">
                        <mxPoint x="60" y="78.46437346437344" as="sourcePoint"/>
                        <mxPoint x="60" as="targetPoint"/>
                    </mxGeometry>
                </mxCell>
                <mxCell id="563" value="HEX1[3]" style="edgeLabel;html=1;align=center;verticalAlign=middle;resizable=0;points=[];rotation=-90;" vertex="1" connectable="0" parent="562">
                    <mxGeometry x="0.6458" y="3" relative="1" as="geometry">
                        <mxPoint x="3" y="26" as="offset"/>
                    </mxGeometry>
                </mxCell>
                <mxCell id="564" value="" style="endArrow=none;html=1;" edge="1" parent="555">
                    <mxGeometry width="50" height="50" relative="1" as="geometry">
                        <mxPoint x="80" y="78.46437346437344" as="sourcePoint"/>
                        <mxPoint x="80" as="targetPoint"/>
                    </mxGeometry>
                </mxCell>
                <mxCell id="565" value="HEX1[2]" style="edgeLabel;html=1;align=center;verticalAlign=middle;resizable=0;points=[];rotation=-90;" vertex="1" connectable="0" parent="564">
                    <mxGeometry x="0.6458" y="3" relative="1" as="geometry">
                        <mxPoint x="3" y="26" as="offset"/>
                    </mxGeometry>
                </mxCell>
                <mxCell id="566" value="" style="endArrow=none;html=1;" edge="1" parent="555">
                    <mxGeometry width="50" height="50" relative="1" as="geometry">
                        <mxPoint x="100" y="78.46437346437344" as="sourcePoint"/>
                        <mxPoint x="100" as="targetPoint"/>
                    </mxGeometry>
                </mxCell>
                <mxCell id="567" value="HEX1[1]" style="edgeLabel;html=1;align=center;verticalAlign=middle;resizable=0;points=[];rotation=-90;" vertex="1" connectable="0" parent="566">
                    <mxGeometry x="0.6458" y="3" relative="1" as="geometry">
                        <mxPoint x="3" y="26" as="offset"/>
                    </mxGeometry>
                </mxCell>
                <mxCell id="568" value="" style="endArrow=none;html=1;" edge="1" parent="555">
                    <mxGeometry width="50" height="50" relative="1" as="geometry">
                        <mxPoint x="120" y="78.46437346437344" as="sourcePoint"/>
                        <mxPoint x="120" as="targetPoint"/>
                    </mxGeometry>
                </mxCell>
                <mxCell id="569" value="HEX1[0]" style="edgeLabel;html=1;align=center;verticalAlign=middle;resizable=0;points=[];rotation=-90;" vertex="1" connectable="0" parent="568">
                    <mxGeometry x="0.6458" y="3" relative="1" as="geometry">
                        <mxPoint x="3" y="26" as="offset"/>
                    </mxGeometry>
                </mxCell>
                <mxCell id="570" value="" style="group;rotation=90;" vertex="1" connectable="0" parent="585">
                    <mxGeometry x="680" y="19.61609336609336" width="120" height="78.46437346437344" as="geometry"/>
                </mxCell>
                <mxCell id="571" value="" style="endArrow=none;html=1;" edge="1" parent="570">
                    <mxGeometry width="50" height="50" relative="1" as="geometry">
                        <mxPoint y="78.46437346437344" as="sourcePoint"/>
                        <mxPoint as="targetPoint"/>
                    </mxGeometry>
                </mxCell>
                <mxCell id="572" value="HEX0[6]" style="edgeLabel;html=1;align=center;verticalAlign=middle;resizable=0;points=[];rotation=-90;" vertex="1" connectable="0" parent="571">
                    <mxGeometry x="0.6458" y="3" relative="1" as="geometry">
                        <mxPoint x="3" y="26" as="offset"/>
                    </mxGeometry>
                </mxCell>
                <mxCell id="573" value="" style="endArrow=none;html=1;" edge="1" parent="570">
                    <mxGeometry width="50" height="50" relative="1" as="geometry">
                        <mxPoint x="40" y="78.46437346437344" as="sourcePoint"/>
                        <mxPoint x="40" as="targetPoint"/>
                    </mxGeometry>
                </mxCell>
                <mxCell id="574" value="HEX0[4]" style="edgeLabel;html=1;align=center;verticalAlign=middle;resizable=0;points=[];rotation=-90;" vertex="1" connectable="0" parent="573">
                    <mxGeometry x="0.6458" y="3" relative="1" as="geometry">
                        <mxPoint x="3" y="26" as="offset"/>
                    </mxGeometry>
                </mxCell>
                <mxCell id="575" value="" style="endArrow=none;html=1;" edge="1" parent="570">
                    <mxGeometry width="50" height="50" relative="1" as="geometry">
                        <mxPoint x="20" y="78.46437346437344" as="sourcePoint"/>
                        <mxPoint x="20" as="targetPoint"/>
                    </mxGeometry>
                </mxCell>
                <mxCell id="576" value="HEX0[5]" style="edgeLabel;html=1;align=center;verticalAlign=middle;resizable=0;points=[];rotation=-90;" vertex="1" connectable="0" parent="575">
                    <mxGeometry x="0.6458" y="3" relative="1" as="geometry">
                        <mxPoint x="3" y="26" as="offset"/>
                    </mxGeometry>
                </mxCell>
                <mxCell id="577" value="" style="endArrow=none;html=1;" edge="1" parent="570">
                    <mxGeometry width="50" height="50" relative="1" as="geometry">
                        <mxPoint x="60" y="78.46437346437344" as="sourcePoint"/>
                        <mxPoint x="60" as="targetPoint"/>
                    </mxGeometry>
                </mxCell>
                <mxCell id="578" value="HEX0[3]" style="edgeLabel;html=1;align=center;verticalAlign=middle;resizable=0;points=[];rotation=-90;" vertex="1" connectable="0" parent="577">
                    <mxGeometry x="0.6458" y="3" relative="1" as="geometry">
                        <mxPoint x="3" y="26" as="offset"/>
                    </mxGeometry>
                </mxCell>
                <mxCell id="579" value="" style="endArrow=none;html=1;" edge="1" parent="570">
                    <mxGeometry width="50" height="50" relative="1" as="geometry">
                        <mxPoint x="80" y="78.46437346437344" as="sourcePoint"/>
                        <mxPoint x="80" as="targetPoint"/>
                    </mxGeometry>
                </mxCell>
                <mxCell id="580" value="HEX0[2]" style="edgeLabel;html=1;align=center;verticalAlign=middle;resizable=0;points=[];rotation=-90;" vertex="1" connectable="0" parent="579">
                    <mxGeometry x="0.6458" y="3" relative="1" as="geometry">
                        <mxPoint x="3" y="26" as="offset"/>
                    </mxGeometry>
                </mxCell>
                <mxCell id="581" value="" style="endArrow=none;html=1;" edge="1" parent="570">
                    <mxGeometry width="50" height="50" relative="1" as="geometry">
                        <mxPoint x="100" y="78.46437346437344" as="sourcePoint"/>
                        <mxPoint x="100" as="targetPoint"/>
                    </mxGeometry>
                </mxCell>
                <mxCell id="582" value="HEX0[1]" style="edgeLabel;html=1;align=center;verticalAlign=middle;resizable=0;points=[];rotation=-90;" vertex="1" connectable="0" parent="581">
                    <mxGeometry x="0.6458" y="3" relative="1" as="geometry">
                        <mxPoint x="3" y="26" as="offset"/>
                    </mxGeometry>
                </mxCell>
                <mxCell id="583" value="" style="endArrow=none;html=1;" edge="1" parent="570">
                    <mxGeometry width="50" height="50" relative="1" as="geometry">
                        <mxPoint x="120" y="78.46437346437344" as="sourcePoint"/>
                        <mxPoint x="120" as="targetPoint"/>
                    </mxGeometry>
                </mxCell>
                <mxCell id="584" value="HEX0[0]" style="edgeLabel;html=1;align=center;verticalAlign=middle;resizable=0;points=[];rotation=-90;" vertex="1" connectable="0" parent="583">
                    <mxGeometry x="0.6458" y="3" relative="1" as="geometry">
                        <mxPoint x="3" y="26" as="offset"/>
                    </mxGeometry>
                </mxCell>
                <mxCell id="586" value="FPGA" style="text;html=1;strokeColor=none;fillColor=none;align=center;verticalAlign=middle;whiteSpace=wrap;rounded=0;rotation=-90;" vertex="1" parent="587">
                    <mxGeometry x="-15" y="255.2446068796068" width="60" height="29.42414004914004" as="geometry"/>
                </mxCell>
                <mxCell id="519" value="" style="group" vertex="1" connectable="0" parent="590">
                    <mxGeometry x="30" y="100" width="850" height="350.48" as="geometry"/>
                </mxCell>
                <mxCell id="348" value="" style="group" vertex="1" connectable="0" parent="519">
                    <mxGeometry width="850" height="343.75242014742" as="geometry"/>
                </mxCell>
                <mxCell id="346" value="" style="group" vertex="1" connectable="0" parent="348">
                    <mxGeometry x="30" width="820" height="343.75242014742" as="geometry"/>
                </mxCell>
                <mxCell id="158" value="" style="rounded=0;whiteSpace=wrap;html=1;" vertex="1" parent="346">
                    <mxGeometry y="58.84828009828008" width="820" height="235.3931203931203" as="geometry"/>
                </mxCell>
                <mxCell id="246" value="" style="group" vertex="1" connectable="0" parent="346">
                    <mxGeometry x="250" y="284.90414004914" width="120" height="58.84828009828008" as="geometry"/>
                </mxCell>
                <mxCell id="247" value="" style="endArrow=none;html=1;" edge="1" parent="246">
                    <mxGeometry width="50" height="50" relative="1" as="geometry">
                        <mxPoint as="sourcePoint"/>
                        <mxPoint y="58.84828009828008" as="targetPoint"/>
                    </mxGeometry>
                </mxCell>
                <mxCell id="248" value="sw[11]" style="edgeLabel;html=1;align=center;verticalAlign=middle;resizable=0;points=[];rotation=-90;" vertex="1" connectable="0" parent="247">
                    <mxGeometry x="0.1946" y="-1" relative="1" as="geometry">
                        <mxPoint x="1" y="-2" as="offset"/>
                    </mxGeometry>
                </mxCell>
                <mxCell id="249" value="" style="endArrow=none;html=1;" edge="1" parent="246">
                    <mxGeometry width="50" height="50" relative="1" as="geometry">
                        <mxPoint x="40" as="sourcePoint"/>
                        <mxPoint x="40" y="58.84828009828008" as="targetPoint"/>
                    </mxGeometry>
                </mxCell>
                <mxCell id="250" value="sw[10]" style="edgeLabel;html=1;align=center;verticalAlign=middle;resizable=0;points=[];rotation=-90;" vertex="1" connectable="0" parent="249">
                    <mxGeometry x="0.1946" y="-1" relative="1" as="geometry">
                        <mxPoint x="1" y="-2" as="offset"/>
                    </mxGeometry>
                </mxCell>
                <mxCell id="251" value="" style="endArrow=none;html=1;" edge="1" parent="246">
                    <mxGeometry width="50" height="50" relative="1" as="geometry">
                        <mxPoint x="80" as="sourcePoint"/>
                        <mxPoint x="80" y="58.84828009828008" as="targetPoint"/>
                    </mxGeometry>
                </mxCell>
                <mxCell id="252" value="sw[9]" style="edgeLabel;html=1;align=center;verticalAlign=middle;resizable=0;points=[];rotation=-90;" vertex="1" connectable="0" parent="251">
                    <mxGeometry x="0.1946" y="-1" relative="1" as="geometry">
                        <mxPoint x="1" y="-2" as="offset"/>
                    </mxGeometry>
                </mxCell>
                <mxCell id="253" value="" style="endArrow=none;html=1;" edge="1" parent="246">
                    <mxGeometry width="50" height="50" relative="1" as="geometry">
                        <mxPoint x="120" as="sourcePoint"/>
                        <mxPoint x="120" y="58.84828009828008" as="targetPoint"/>
                    </mxGeometry>
                </mxCell>
                <mxCell id="254" value="sw[8]" style="edgeLabel;html=1;align=center;verticalAlign=middle;resizable=0;points=[];rotation=-90;" vertex="1" connectable="0" parent="253">
                    <mxGeometry x="0.1946" y="-1" relative="1" as="geometry">
                        <mxPoint x="1" y="-2" as="offset"/>
                    </mxGeometry>
                </mxCell>
                <mxCell id="180" value="" style="group" vertex="1" connectable="0" parent="346">
                    <mxGeometry x="50" width="120" height="78.46437346437344" as="geometry"/>
                </mxCell>
                <mxCell id="160" value="" style="endArrow=none;html=1;" edge="1" parent="180">
                    <mxGeometry width="50" height="50" relative="1" as="geometry">
                        <mxPoint y="78.46437346437344" as="sourcePoint"/>
                        <mxPoint as="targetPoint"/>
                    </mxGeometry>
                </mxCell>
                <mxCell id="161" value="led[0]" style="edgeLabel;html=1;align=center;verticalAlign=middle;resizable=0;points=[];rotation=-90;" vertex="1" connectable="0" parent="160">
                    <mxGeometry x="0.3605" y="-1" relative="1" as="geometry">
                        <mxPoint x="-1" y="4" as="offset"/>
                    </mxGeometry>
                </mxCell>
                <mxCell id="162" value="" style="endArrow=none;html=1;" edge="1" parent="180">
                    <mxGeometry width="50" height="50" relative="1" as="geometry">
                        <mxPoint x="20" y="78.46437346437344" as="sourcePoint"/>
                        <mxPoint x="20" as="targetPoint"/>
                    </mxGeometry>
                </mxCell>
                <mxCell id="163" value="led[0]" style="edgeLabel;html=1;align=center;verticalAlign=middle;resizable=0;points=[];rotation=-90;" vertex="1" connectable="0" parent="162">
                    <mxGeometry x="0.3605" y="-1" relative="1" as="geometry">
                        <mxPoint x="-1" y="4" as="offset"/>
                    </mxGeometry>
                </mxCell>
                <mxCell id="164" value="" style="endArrow=none;html=1;" edge="1" parent="180">
                    <mxGeometry width="50" height="50" relative="1" as="geometry">
                        <mxPoint x="40" y="78.46437346437344" as="sourcePoint"/>
                        <mxPoint x="40" as="targetPoint"/>
                    </mxGeometry>
                </mxCell>
                <mxCell id="165" value="led[0]" style="edgeLabel;html=1;align=center;verticalAlign=middle;resizable=0;points=[];rotation=-90;" vertex="1" connectable="0" parent="164">
                    <mxGeometry x="0.3605" y="-1" relative="1" as="geometry">
                        <mxPoint x="-1" y="4" as="offset"/>
                    </mxGeometry>
                </mxCell>
                <mxCell id="166" value="" style="endArrow=none;html=1;" edge="1" parent="180">
                    <mxGeometry width="50" height="50" relative="1" as="geometry">
                        <mxPoint x="60" y="78.46437346437344" as="sourcePoint"/>
                        <mxPoint x="60" as="targetPoint"/>
                    </mxGeometry>
                </mxCell>
                <mxCell id="167" value="led[0]" style="edgeLabel;html=1;align=center;verticalAlign=middle;resizable=0;points=[];rotation=-90;" vertex="1" connectable="0" parent="166">
                    <mxGeometry x="0.3605" y="-1" relative="1" as="geometry">
                        <mxPoint x="-1" y="4" as="offset"/>
                    </mxGeometry>
                </mxCell>
                <mxCell id="168" value="" style="endArrow=none;html=1;" edge="1" parent="180">
                    <mxGeometry width="50" height="50" relative="1" as="geometry">
                        <mxPoint x="80" y="78.46437346437344" as="sourcePoint"/>
                        <mxPoint x="80" as="targetPoint"/>
                    </mxGeometry>
                </mxCell>
                <mxCell id="169" value="led[0]" style="edgeLabel;html=1;align=center;verticalAlign=middle;resizable=0;points=[];rotation=-90;" vertex="1" connectable="0" parent="168">
                    <mxGeometry x="0.3605" y="-1" relative="1" as="geometry">
                        <mxPoint x="-1" y="4" as="offset"/>
                    </mxGeometry>
                </mxCell>
                <mxCell id="170" value="" style="endArrow=none;html=1;" edge="1" parent="180">
                    <mxGeometry width="50" height="50" relative="1" as="geometry">
                        <mxPoint x="100" y="78.46437346437344" as="sourcePoint"/>
                        <mxPoint x="100" as="targetPoint"/>
                    </mxGeometry>
                </mxCell>
                <mxCell id="171" value="led[0]" style="edgeLabel;html=1;align=center;verticalAlign=middle;resizable=0;points=[];rotation=-90;" vertex="1" connectable="0" parent="170">
                    <mxGeometry x="0.3605" y="-1" relative="1" as="geometry">
                        <mxPoint x="-1" y="4" as="offset"/>
                    </mxGeometry>
                </mxCell>
                <mxCell id="172" value="" style="endArrow=none;html=1;" edge="1" parent="180">
                    <mxGeometry width="50" height="50" relative="1" as="geometry">
                        <mxPoint x="120" y="78.46437346437344" as="sourcePoint"/>
                        <mxPoint x="120" as="targetPoint"/>
                    </mxGeometry>
                </mxCell>
                <mxCell id="173" value="led[0]" style="edgeLabel;html=1;align=center;verticalAlign=middle;resizable=0;points=[];rotation=-90;" vertex="1" connectable="0" parent="172">
                    <mxGeometry x="0.3605" y="-1" relative="1" as="geometry">
                        <mxPoint x="-1" y="4" as="offset"/>
                    </mxGeometry>
                </mxCell>
                <mxCell id="181" value="" style="group" vertex="1" connectable="0" parent="346">
                    <mxGeometry x="250" width="120" height="78.46437346437344" as="geometry"/>
                </mxCell>
                <mxCell id="182" value="" style="endArrow=none;html=1;" edge="1" parent="181">
                    <mxGeometry width="50" height="50" relative="1" as="geometry">
                        <mxPoint y="78.46437346437344" as="sourcePoint"/>
                        <mxPoint as="targetPoint"/>
                    </mxGeometry>
                </mxCell>
                <mxCell id="183" value="led[0]" style="edgeLabel;html=1;align=center;verticalAlign=middle;resizable=0;points=[];rotation=-90;" vertex="1" connectable="0" parent="182">
                    <mxGeometry x="0.3605" y="-1" relative="1" as="geometry">
                        <mxPoint x="-1" y="4" as="offset"/>
                    </mxGeometry>
                </mxCell>
                <mxCell id="184" value="" style="endArrow=none;html=1;" edge="1" parent="181">
                    <mxGeometry width="50" height="50" relative="1" as="geometry">
                        <mxPoint x="20" y="78.46437346437344" as="sourcePoint"/>
                        <mxPoint x="20" as="targetPoint"/>
                    </mxGeometry>
                </mxCell>
                <mxCell id="185" value="led[0]" style="edgeLabel;html=1;align=center;verticalAlign=middle;resizable=0;points=[];rotation=-90;" vertex="1" connectable="0" parent="184">
                    <mxGeometry x="0.3605" y="-1" relative="1" as="geometry">
                        <mxPoint x="-1" y="4" as="offset"/>
                    </mxGeometry>
                </mxCell>
                <mxCell id="186" value="" style="endArrow=none;html=1;" edge="1" parent="181">
                    <mxGeometry width="50" height="50" relative="1" as="geometry">
                        <mxPoint x="40" y="78.46437346437344" as="sourcePoint"/>
                        <mxPoint x="40" as="targetPoint"/>
                    </mxGeometry>
                </mxCell>
                <mxCell id="187" value="led[0]" style="edgeLabel;html=1;align=center;verticalAlign=middle;resizable=0;points=[];rotation=-90;" vertex="1" connectable="0" parent="186">
                    <mxGeometry x="0.3605" y="-1" relative="1" as="geometry">
                        <mxPoint x="-1" y="4" as="offset"/>
                    </mxGeometry>
                </mxCell>
                <mxCell id="188" value="" style="endArrow=none;html=1;" edge="1" parent="181">
                    <mxGeometry width="50" height="50" relative="1" as="geometry">
                        <mxPoint x="60" y="78.46437346437344" as="sourcePoint"/>
                        <mxPoint x="60" as="targetPoint"/>
                    </mxGeometry>
                </mxCell>
                <mxCell id="189" value="led[0]" style="edgeLabel;html=1;align=center;verticalAlign=middle;resizable=0;points=[];rotation=-90;" vertex="1" connectable="0" parent="188">
                    <mxGeometry x="0.3605" y="-1" relative="1" as="geometry">
                        <mxPoint x="-1" y="4" as="offset"/>
                    </mxGeometry>
                </mxCell>
                <mxCell id="190" value="" style="endArrow=none;html=1;" edge="1" parent="181">
                    <mxGeometry width="50" height="50" relative="1" as="geometry">
                        <mxPoint x="80" y="78.46437346437344" as="sourcePoint"/>
                        <mxPoint x="80" as="targetPoint"/>
                    </mxGeometry>
                </mxCell>
                <mxCell id="191" value="led[0]" style="edgeLabel;html=1;align=center;verticalAlign=middle;resizable=0;points=[];rotation=-90;" vertex="1" connectable="0" parent="190">
                    <mxGeometry x="0.3605" y="-1" relative="1" as="geometry">
                        <mxPoint x="-1" y="4" as="offset"/>
                    </mxGeometry>
                </mxCell>
                <mxCell id="192" value="" style="endArrow=none;html=1;" edge="1" parent="181">
                    <mxGeometry width="50" height="50" relative="1" as="geometry">
                        <mxPoint x="100" y="78.46437346437344" as="sourcePoint"/>
                        <mxPoint x="100" as="targetPoint"/>
                    </mxGeometry>
                </mxCell>
                <mxCell id="193" value="led[0]" style="edgeLabel;html=1;align=center;verticalAlign=middle;resizable=0;points=[];rotation=-90;" vertex="1" connectable="0" parent="192">
                    <mxGeometry x="0.3605" y="-1" relative="1" as="geometry">
                        <mxPoint x="-1" y="4" as="offset"/>
                    </mxGeometry>
                </mxCell>
                <mxCell id="194" value="" style="endArrow=none;html=1;" edge="1" parent="181">
                    <mxGeometry width="50" height="50" relative="1" as="geometry">
                        <mxPoint x="120" y="78.46437346437344" as="sourcePoint"/>
                        <mxPoint x="120" as="targetPoint"/>
                    </mxGeometry>
                </mxCell>
                <mxCell id="195" value="led[0]" style="edgeLabel;html=1;align=center;verticalAlign=middle;resizable=0;points=[];rotation=-90;" vertex="1" connectable="0" parent="194">
                    <mxGeometry x="0.3605" y="-1" relative="1" as="geometry">
                        <mxPoint x="-1" y="4" as="offset"/>
                    </mxGeometry>
                </mxCell>
                <mxCell id="196" value="" style="group" vertex="1" connectable="0" parent="346">
                    <mxGeometry x="450" width="120" height="78.46437346437344" as="geometry"/>
                </mxCell>
                <mxCell id="197" value="" style="endArrow=none;html=1;" edge="1" parent="196">
                    <mxGeometry width="50" height="50" relative="1" as="geometry">
                        <mxPoint y="78.46437346437344" as="sourcePoint"/>
                        <mxPoint as="targetPoint"/>
                    </mxGeometry>
                </mxCell>
                <mxCell id="198" value="led[0]" style="edgeLabel;html=1;align=center;verticalAlign=middle;resizable=0;points=[];rotation=-90;" vertex="1" connectable="0" parent="197">
                    <mxGeometry x="0.3605" y="-1" relative="1" as="geometry">
                        <mxPoint x="-1" y="4" as="offset"/>
                    </mxGeometry>
                </mxCell>
                <mxCell id="199" value="" style="endArrow=none;html=1;" edge="1" parent="196">
                    <mxGeometry width="50" height="50" relative="1" as="geometry">
                        <mxPoint x="20" y="78.46437346437344" as="sourcePoint"/>
                        <mxPoint x="20" as="targetPoint"/>
                    </mxGeometry>
                </mxCell>
                <mxCell id="200" value="led[0]" style="edgeLabel;html=1;align=center;verticalAlign=middle;resizable=0;points=[];rotation=-90;" vertex="1" connectable="0" parent="199">
                    <mxGeometry x="0.3605" y="-1" relative="1" as="geometry">
                        <mxPoint x="-1" y="4" as="offset"/>
                    </mxGeometry>
                </mxCell>
                <mxCell id="201" value="" style="endArrow=none;html=1;" edge="1" parent="196">
                    <mxGeometry width="50" height="50" relative="1" as="geometry">
                        <mxPoint x="40" y="78.46437346437344" as="sourcePoint"/>
                        <mxPoint x="40" as="targetPoint"/>
                    </mxGeometry>
                </mxCell>
                <mxCell id="202" value="led[0]" style="edgeLabel;html=1;align=center;verticalAlign=middle;resizable=0;points=[];rotation=-90;" vertex="1" connectable="0" parent="201">
                    <mxGeometry x="0.3605" y="-1" relative="1" as="geometry">
                        <mxPoint x="-1" y="4" as="offset"/>
                    </mxGeometry>
                </mxCell>
                <mxCell id="203" value="" style="endArrow=none;html=1;" edge="1" parent="196">
                    <mxGeometry width="50" height="50" relative="1" as="geometry">
                        <mxPoint x="60" y="78.46437346437344" as="sourcePoint"/>
                        <mxPoint x="60" as="targetPoint"/>
                    </mxGeometry>
                </mxCell>
                <mxCell id="204" value="led[0]" style="edgeLabel;html=1;align=center;verticalAlign=middle;resizable=0;points=[];rotation=-90;" vertex="1" connectable="0" parent="203">
                    <mxGeometry x="0.3605" y="-1" relative="1" as="geometry">
                        <mxPoint x="-1" y="4" as="offset"/>
                    </mxGeometry>
                </mxCell>
                <mxCell id="205" value="" style="endArrow=none;html=1;" edge="1" parent="196">
                    <mxGeometry width="50" height="50" relative="1" as="geometry">
                        <mxPoint x="80" y="78.46437346437344" as="sourcePoint"/>
                        <mxPoint x="80" as="targetPoint"/>
                    </mxGeometry>
                </mxCell>
                <mxCell id="206" value="led[0]" style="edgeLabel;html=1;align=center;verticalAlign=middle;resizable=0;points=[];rotation=-90;" vertex="1" connectable="0" parent="205">
                    <mxGeometry x="0.3605" y="-1" relative="1" as="geometry">
                        <mxPoint x="-1" y="4" as="offset"/>
                    </mxGeometry>
                </mxCell>
                <mxCell id="207" value="" style="endArrow=none;html=1;" edge="1" parent="196">
                    <mxGeometry width="50" height="50" relative="1" as="geometry">
                        <mxPoint x="100" y="78.46437346437344" as="sourcePoint"/>
                        <mxPoint x="100" as="targetPoint"/>
                    </mxGeometry>
                </mxCell>
                <mxCell id="208" value="led[0]" style="edgeLabel;html=1;align=center;verticalAlign=middle;resizable=0;points=[];rotation=-90;" vertex="1" connectable="0" parent="207">
                    <mxGeometry x="0.3605" y="-1" relative="1" as="geometry">
                        <mxPoint x="-1" y="4" as="offset"/>
                    </mxGeometry>
                </mxCell>
                <mxCell id="209" value="" style="endArrow=none;html=1;" edge="1" parent="196">
                    <mxGeometry width="50" height="50" relative="1" as="geometry">
                        <mxPoint x="120" y="78.46437346437344" as="sourcePoint"/>
                        <mxPoint x="120" as="targetPoint"/>
                    </mxGeometry>
                </mxCell>
                <mxCell id="210" value="led[0]" style="edgeLabel;html=1;align=center;verticalAlign=middle;resizable=0;points=[];rotation=-90;" vertex="1" connectable="0" parent="209">
                    <mxGeometry x="0.3605" y="-1" relative="1" as="geometry">
                        <mxPoint x="-1" y="4" as="offset"/>
                    </mxGeometry>
                </mxCell>
                <mxCell id="211" value="" style="group" vertex="1" connectable="0" parent="346">
                    <mxGeometry x="650" width="120" height="78.46437346437344" as="geometry"/>
                </mxCell>
                <mxCell id="212" value="" style="endArrow=none;html=1;" edge="1" parent="211">
                    <mxGeometry width="50" height="50" relative="1" as="geometry">
                        <mxPoint y="78.46437346437344" as="sourcePoint"/>
                        <mxPoint as="targetPoint"/>
                    </mxGeometry>
                </mxCell>
                <mxCell id="213" value="led[0]" style="edgeLabel;html=1;align=center;verticalAlign=middle;resizable=0;points=[];rotation=-90;" vertex="1" connectable="0" parent="212">
                    <mxGeometry x="0.3605" y="-1" relative="1" as="geometry">
                        <mxPoint x="-1" y="4" as="offset"/>
                    </mxGeometry>
                </mxCell>
                <mxCell id="214" value="" style="endArrow=none;html=1;" edge="1" parent="211">
                    <mxGeometry width="50" height="50" relative="1" as="geometry">
                        <mxPoint x="20" y="78.46437346437344" as="sourcePoint"/>
                        <mxPoint x="20" as="targetPoint"/>
                    </mxGeometry>
                </mxCell>
                <mxCell id="215" value="led[0]" style="edgeLabel;html=1;align=center;verticalAlign=middle;resizable=0;points=[];rotation=-90;" vertex="1" connectable="0" parent="214">
                    <mxGeometry x="0.3605" y="-1" relative="1" as="geometry">
                        <mxPoint x="-1" y="4" as="offset"/>
                    </mxGeometry>
                </mxCell>
                <mxCell id="216" value="" style="endArrow=none;html=1;" edge="1" parent="211">
                    <mxGeometry width="50" height="50" relative="1" as="geometry">
                        <mxPoint x="40" y="78.46437346437344" as="sourcePoint"/>
                        <mxPoint x="40" as="targetPoint"/>
                    </mxGeometry>
                </mxCell>
                <mxCell id="217" value="led[0]" style="edgeLabel;html=1;align=center;verticalAlign=middle;resizable=0;points=[];rotation=-90;" vertex="1" connectable="0" parent="216">
                    <mxGeometry x="0.3605" y="-1" relative="1" as="geometry">
                        <mxPoint x="-1" y="4" as="offset"/>
                    </mxGeometry>
                </mxCell>
                <mxCell id="218" value="" style="endArrow=none;html=1;" edge="1" parent="211">
                    <mxGeometry width="50" height="50" relative="1" as="geometry">
                        <mxPoint x="60" y="78.46437346437344" as="sourcePoint"/>
                        <mxPoint x="60" as="targetPoint"/>
                    </mxGeometry>
                </mxCell>
                <mxCell id="219" value="led[0]" style="edgeLabel;html=1;align=center;verticalAlign=middle;resizable=0;points=[];rotation=-90;" vertex="1" connectable="0" parent="218">
                    <mxGeometry x="0.3605" y="-1" relative="1" as="geometry">
                        <mxPoint x="-1" y="4" as="offset"/>
                    </mxGeometry>
                </mxCell>
                <mxCell id="220" value="" style="endArrow=none;html=1;" edge="1" parent="211">
                    <mxGeometry width="50" height="50" relative="1" as="geometry">
                        <mxPoint x="80" y="78.46437346437344" as="sourcePoint"/>
                        <mxPoint x="80" as="targetPoint"/>
                    </mxGeometry>
                </mxCell>
                <mxCell id="221" value="led[0]" style="edgeLabel;html=1;align=center;verticalAlign=middle;resizable=0;points=[];rotation=-90;" vertex="1" connectable="0" parent="220">
                    <mxGeometry x="0.3605" y="-1" relative="1" as="geometry">
                        <mxPoint x="-1" y="4" as="offset"/>
                    </mxGeometry>
                </mxCell>
                <mxCell id="222" value="" style="endArrow=none;html=1;" edge="1" parent="211">
                    <mxGeometry width="50" height="50" relative="1" as="geometry">
                        <mxPoint x="100" y="78.46437346437344" as="sourcePoint"/>
                        <mxPoint x="100" as="targetPoint"/>
                    </mxGeometry>
                </mxCell>
                <mxCell id="223" value="led[0]" style="edgeLabel;html=1;align=center;verticalAlign=middle;resizable=0;points=[];rotation=-90;" vertex="1" connectable="0" parent="222">
                    <mxGeometry x="0.3605" y="-1" relative="1" as="geometry">
                        <mxPoint x="-1" y="4" as="offset"/>
                    </mxGeometry>
                </mxCell>
                <mxCell id="224" value="" style="endArrow=none;html=1;" edge="1" parent="211">
                    <mxGeometry width="50" height="50" relative="1" as="geometry">
                        <mxPoint x="120" y="78.46437346437344" as="sourcePoint"/>
                        <mxPoint x="120" as="targetPoint"/>
                    </mxGeometry>
                </mxCell>
                <mxCell id="225" value="led[0]" style="edgeLabel;html=1;align=center;verticalAlign=middle;resizable=0;points=[];rotation=-90;" vertex="1" connectable="0" parent="224">
                    <mxGeometry x="0.3605" y="-1" relative="1" as="geometry">
                        <mxPoint x="-1" y="4" as="offset"/>
                    </mxGeometry>
                </mxCell>
                <mxCell id="327" value="" style="group" vertex="1" connectable="0" parent="346">
                    <mxGeometry x="450" y="284.90414004914" width="120" height="58.84828009828008" as="geometry"/>
                </mxCell>
                <mxCell id="328" value="" style="endArrow=none;html=1;" edge="1" parent="327">
                    <mxGeometry width="50" height="50" relative="1" as="geometry">
                        <mxPoint as="sourcePoint"/>
                        <mxPoint y="58.84828009828008" as="targetPoint"/>
                    </mxGeometry>
                </mxCell>
                <mxCell id="329" value="sw[7]" style="edgeLabel;html=1;align=center;verticalAlign=middle;resizable=0;points=[];rotation=-90;" vertex="1" connectable="0" parent="328">
                    <mxGeometry x="0.1946" y="-1" relative="1" as="geometry">
                        <mxPoint x="1" y="-2" as="offset"/>
                    </mxGeometry>
                </mxCell>
                <mxCell id="330" value="" style="endArrow=none;html=1;" edge="1" parent="327">
                    <mxGeometry width="50" height="50" relative="1" as="geometry">
                        <mxPoint x="40" as="sourcePoint"/>
                        <mxPoint x="40" y="58.84828009828008" as="targetPoint"/>
                    </mxGeometry>
                </mxCell>
                <mxCell id="331" value="sw[6]" style="edgeLabel;html=1;align=center;verticalAlign=middle;resizable=0;points=[];rotation=-90;" vertex="1" connectable="0" parent="330">
                    <mxGeometry x="0.1946" y="-1" relative="1" as="geometry">
                        <mxPoint x="1" y="-2" as="offset"/>
                    </mxGeometry>
                </mxCell>
                <mxCell id="332" value="" style="endArrow=none;html=1;" edge="1" parent="327">
                    <mxGeometry width="50" height="50" relative="1" as="geometry">
                        <mxPoint x="80" as="sourcePoint"/>
                        <mxPoint x="80" y="58.84828009828008" as="targetPoint"/>
                    </mxGeometry>
                </mxCell>
                <mxCell id="333" value="sw[5]" style="edgeLabel;html=1;align=center;verticalAlign=middle;resizable=0;points=[];rotation=-90;" vertex="1" connectable="0" parent="332">
                    <mxGeometry x="0.1946" y="-1" relative="1" as="geometry">
                        <mxPoint x="1" y="-2" as="offset"/>
                    </mxGeometry>
                </mxCell>
                <mxCell id="334" value="" style="endArrow=none;html=1;" edge="1" parent="327">
                    <mxGeometry width="50" height="50" relative="1" as="geometry">
                        <mxPoint x="120" as="sourcePoint"/>
                        <mxPoint x="120" y="58.84828009828008" as="targetPoint"/>
                    </mxGeometry>
                </mxCell>
                <mxCell id="335" value="sw[4]" style="edgeLabel;html=1;align=center;verticalAlign=middle;resizable=0;points=[];rotation=-90;" vertex="1" connectable="0" parent="334">
                    <mxGeometry x="0.1946" y="-1" relative="1" as="geometry">
                        <mxPoint x="1" y="-2" as="offset"/>
                    </mxGeometry>
                </mxCell>
                <mxCell id="336" value="" style="group" vertex="1" connectable="0" parent="346">
                    <mxGeometry x="650" y="284.90414004914" width="120" height="58.84828009828008" as="geometry"/>
                </mxCell>
                <mxCell id="337" value="" style="endArrow=none;html=1;" edge="1" parent="336">
                    <mxGeometry width="50" height="50" relative="1" as="geometry">
                        <mxPoint as="sourcePoint"/>
                        <mxPoint y="58.84828009828008" as="targetPoint"/>
                    </mxGeometry>
                </mxCell>
                <mxCell id="338" value="sw[3]" style="edgeLabel;html=1;align=center;verticalAlign=middle;resizable=0;points=[];rotation=-90;" vertex="1" connectable="0" parent="337">
                    <mxGeometry x="0.1946" y="-1" relative="1" as="geometry">
                        <mxPoint x="1" y="-2" as="offset"/>
                    </mxGeometry>
                </mxCell>
                <mxCell id="339" value="" style="endArrow=none;html=1;" edge="1" parent="336">
                    <mxGeometry width="50" height="50" relative="1" as="geometry">
                        <mxPoint x="40" as="sourcePoint"/>
                        <mxPoint x="40" y="58.84828009828008" as="targetPoint"/>
                    </mxGeometry>
                </mxCell>
                <mxCell id="340" value="sw[2]" style="edgeLabel;html=1;align=center;verticalAlign=middle;resizable=0;points=[];rotation=-90;" vertex="1" connectable="0" parent="339">
                    <mxGeometry x="0.1946" y="-1" relative="1" as="geometry">
                        <mxPoint x="1" y="-2" as="offset"/>
                    </mxGeometry>
                </mxCell>
                <mxCell id="341" value="" style="endArrow=none;html=1;" edge="1" parent="336">
                    <mxGeometry width="50" height="50" relative="1" as="geometry">
                        <mxPoint x="80" as="sourcePoint"/>
                        <mxPoint x="80" y="58.84828009828008" as="targetPoint"/>
                    </mxGeometry>
                </mxCell>
                <mxCell id="342" value="sw[1]" style="edgeLabel;html=1;align=center;verticalAlign=middle;resizable=0;points=[];rotation=-90;" vertex="1" connectable="0" parent="341">
                    <mxGeometry x="0.1946" y="-1" relative="1" as="geometry">
                        <mxPoint x="1" y="-2" as="offset"/>
                    </mxGeometry>
                </mxCell>
                <mxCell id="343" value="" style="endArrow=none;html=1;" edge="1" parent="336">
                    <mxGeometry width="50" height="50" relative="1" as="geometry">
                        <mxPoint x="120" as="sourcePoint"/>
                        <mxPoint x="120" y="58.84828009828008" as="targetPoint"/>
                    </mxGeometry>
                </mxCell>
                <mxCell id="344" value="sw[0]" style="edgeLabel;html=1;align=center;verticalAlign=middle;resizable=0;points=[];rotation=-90;" vertex="1" connectable="0" parent="343">
                    <mxGeometry x="0.1946" y="-1" relative="1" as="geometry">
                        <mxPoint x="1" y="-2" as="offset"/>
                    </mxGeometry>
                </mxCell>
                <mxCell id="345" value="" style="group" vertex="1" connectable="0" parent="346">
                    <mxGeometry x="50" y="284.90414004914" width="120" height="58.84828009828008" as="geometry"/>
                </mxCell>
                <mxCell id="235" value="" style="endArrow=none;html=1;" edge="1" parent="345">
                    <mxGeometry width="50" height="50" relative="1" as="geometry">
                        <mxPoint as="sourcePoint"/>
                        <mxPoint y="58.84828009828008" as="targetPoint"/>
                    </mxGeometry>
                </mxCell>
                <mxCell id="236" value="sw[15]" style="edgeLabel;html=1;align=center;verticalAlign=middle;resizable=0;points=[];rotation=-90;" vertex="1" connectable="0" parent="235">
                    <mxGeometry x="0.1946" y="-1" relative="1" as="geometry">
                        <mxPoint x="1" y="-2" as="offset"/>
                    </mxGeometry>
                </mxCell>
                <mxCell id="239" value="" style="endArrow=none;html=1;" edge="1" parent="345">
                    <mxGeometry width="50" height="50" relative="1" as="geometry">
                        <mxPoint x="40" as="sourcePoint"/>
                        <mxPoint x="40" y="58.84828009828008" as="targetPoint"/>
                    </mxGeometry>
                </mxCell>
                <mxCell id="240" value="sw[14]" style="edgeLabel;html=1;align=center;verticalAlign=middle;resizable=0;points=[];rotation=-90;" vertex="1" connectable="0" parent="239">
                    <mxGeometry x="0.1946" y="-1" relative="1" as="geometry">
                        <mxPoint x="1" y="-2" as="offset"/>
                    </mxGeometry>
                </mxCell>
                <mxCell id="241" value="" style="endArrow=none;html=1;" edge="1" parent="345">
                    <mxGeometry width="50" height="50" relative="1" as="geometry">
                        <mxPoint x="80" as="sourcePoint"/>
                        <mxPoint x="80" y="58.84828009828008" as="targetPoint"/>
                    </mxGeometry>
                </mxCell>
                <mxCell id="242" value="sw[13]" style="edgeLabel;html=1;align=center;verticalAlign=middle;resizable=0;points=[];rotation=-90;" vertex="1" connectable="0" parent="241">
                    <mxGeometry x="0.1946" y="-1" relative="1" as="geometry">
                        <mxPoint x="1" y="-2" as="offset"/>
                    </mxGeometry>
                </mxCell>
                <mxCell id="243" value="" style="endArrow=none;html=1;" edge="1" parent="345">
                    <mxGeometry width="50" height="50" relative="1" as="geometry">
                        <mxPoint x="120" as="sourcePoint"/>
                        <mxPoint x="120" y="58.84828009828008" as="targetPoint"/>
                    </mxGeometry>
                </mxCell>
                <mxCell id="244" value="sw[12]" style="edgeLabel;html=1;align=center;verticalAlign=middle;resizable=0;points=[];rotation=-90;" vertex="1" connectable="0" parent="243">
                    <mxGeometry x="0.1946" y="-1" relative="1" as="geometry">
                        <mxPoint x="1" y="-2" as="offset"/>
                    </mxGeometry>
                </mxCell>
                <mxCell id="347" value="topmodule" style="text;html=1;strokeColor=none;fillColor=none;align=center;verticalAlign=middle;whiteSpace=wrap;rounded=0;rotation=-90;" vertex="1" parent="348">
                    <mxGeometry x="-15" y="157.16414004914" width="60" height="29.42414004914004" as="geometry"/>
                </mxCell>
                <mxCell id="234" value="" style="group" vertex="1" connectable="0" parent="519">
                    <mxGeometry x="60" y="78.46437346437355" width="160" height="206.4397665847664" as="geometry"/>
                </mxCell>
                <mxCell id="135" value="display_7segment" style="rounded=0;whiteSpace=wrap;html=1;" vertex="1" parent="234">
                    <mxGeometry y="78.69976658476655" width="160" height="78.46437346437342" as="geometry"/>
                </mxCell>
                <mxCell id="136" value="" style="endArrow=none;html=1;exitX=0.123;exitY=0.003;exitDx=0;exitDy=0;exitPerimeter=0;" edge="1" parent="234" source="135">
                    <mxGeometry width="50" height="50" relative="1" as="geometry">
                        <mxPoint x="110" y="29.659533169533166" as="sourcePoint"/>
                        <mxPoint x="20" y="0.2353931203931292" as="targetPoint"/>
                    </mxGeometry>
                </mxCell>
                <mxCell id="137" value="segment[0]" style="edgeLabel;html=1;align=center;verticalAlign=middle;resizable=0;points=[];rotation=-90;" vertex="1" connectable="0" parent="136">
                    <mxGeometry x="-0.4719" y="1" relative="1" as="geometry">
                        <mxPoint y="-19" as="offset"/>
                    </mxGeometry>
                </mxCell>
                <mxCell id="144" value="" style="endArrow=none;html=1;" edge="1" parent="234">
                    <mxGeometry width="50" height="50" relative="1" as="geometry">
                        <mxPoint x="20" y="206.4397665847664" as="sourcePoint"/>
                        <mxPoint x="20.319999999999936" y="157.16414004913997" as="targetPoint"/>
                    </mxGeometry>
                </mxCell>
                <mxCell id="145" value="sw[3]&lt;br&gt;" style="edgeLabel;html=1;align=center;verticalAlign=middle;resizable=0;points=[];rotation=-90;" vertex="1" connectable="0" parent="144">
                    <mxGeometry x="0.1857" y="1" relative="1" as="geometry">
                        <mxPoint x="1" y="4" as="offset"/>
                    </mxGeometry>
                </mxCell>
                <mxCell id="146" value="" style="endArrow=none;html=1;exitX=0.123;exitY=0.003;exitDx=0;exitDy=0;exitPerimeter=0;" edge="1" parent="234">
                    <mxGeometry width="50" height="50" relative="1" as="geometry">
                        <mxPoint x="39.99999999999994" y="78.69976658476645" as="sourcePoint"/>
                        <mxPoint x="40.31999999999999" as="targetPoint"/>
                    </mxGeometry>
                </mxCell>
                <mxCell id="147" value="segment[1]" style="edgeLabel;html=1;align=center;verticalAlign=middle;resizable=0;points=[];rotation=-90;" vertex="1" connectable="0" parent="146">
                    <mxGeometry x="-0.4719" y="1" relative="1" as="geometry">
                        <mxPoint y="-19" as="offset"/>
                    </mxGeometry>
                </mxCell>
                <mxCell id="148" value="" style="endArrow=none;html=1;exitX=0.123;exitY=0.003;exitDx=0;exitDy=0;exitPerimeter=0;" edge="1" parent="234">
                    <mxGeometry width="50" height="50" relative="1" as="geometry">
                        <mxPoint x="60" y="78.69976658476645" as="sourcePoint"/>
                        <mxPoint x="60.319999999999936" as="targetPoint"/>
                    </mxGeometry>
                </mxCell>
                <mxCell id="149" value="segment[2]" style="edgeLabel;html=1;align=center;verticalAlign=middle;resizable=0;points=[];rotation=-90;" vertex="1" connectable="0" parent="148">
                    <mxGeometry x="-0.4719" y="1" relative="1" as="geometry">
                        <mxPoint y="-19" as="offset"/>
                    </mxGeometry>
                </mxCell>
                <mxCell id="150" value="" style="endArrow=none;html=1;exitX=0.123;exitY=0.003;exitDx=0;exitDy=0;exitPerimeter=0;" edge="1" parent="234">
                    <mxGeometry width="50" height="50" relative="1" as="geometry">
                        <mxPoint x="79.75999999999999" y="78.69976658476645" as="sourcePoint"/>
                        <mxPoint x="80.07999999999993" as="targetPoint"/>
                    </mxGeometry>
                </mxCell>
                <mxCell id="151" value="segment[3]" style="edgeLabel;html=1;align=center;verticalAlign=middle;resizable=0;points=[];rotation=-90;" vertex="1" connectable="0" parent="150">
                    <mxGeometry x="-0.4719" y="1" relative="1" as="geometry">
                        <mxPoint y="-19" as="offset"/>
                    </mxGeometry>
                </mxCell>
                <mxCell id="152" value="" style="endArrow=none;html=1;exitX=0.123;exitY=0.003;exitDx=0;exitDy=0;exitPerimeter=0;" edge="1" parent="234">
                    <mxGeometry width="50" height="50" relative="1" as="geometry">
                        <mxPoint x="100" y="78.69976658476645" as="sourcePoint"/>
                        <mxPoint x="100.31999999999994" as="targetPoint"/>
                    </mxGeometry>
                </mxCell>
                <mxCell id="153" value="segment[4]" style="edgeLabel;html=1;align=center;verticalAlign=middle;resizable=0;points=[];rotation=-90;" vertex="1" connectable="0" parent="152">
                    <mxGeometry x="-0.4719" y="1" relative="1" as="geometry">
                        <mxPoint y="-19" as="offset"/>
                    </mxGeometry>
                </mxCell>
                <mxCell id="154" value="" style="endArrow=none;html=1;exitX=0.123;exitY=0.003;exitDx=0;exitDy=0;exitPerimeter=0;" edge="1" parent="234">
                    <mxGeometry width="50" height="50" relative="1" as="geometry">
                        <mxPoint x="120" y="78.69976658476645" as="sourcePoint"/>
                        <mxPoint x="120.31999999999994" as="targetPoint"/>
                    </mxGeometry>
                </mxCell>
                <mxCell id="155" value="segment[5]" style="edgeLabel;html=1;align=center;verticalAlign=middle;resizable=0;points=[];rotation=-90;" vertex="1" connectable="0" parent="154">
                    <mxGeometry x="-0.4719" y="1" relative="1" as="geometry">
                        <mxPoint y="-19" as="offset"/>
                    </mxGeometry>
                </mxCell>
                <mxCell id="156" value="" style="endArrow=none;html=1;exitX=0.123;exitY=0.003;exitDx=0;exitDy=0;exitPerimeter=0;" edge="1" parent="234">
                    <mxGeometry width="50" height="50" relative="1" as="geometry">
                        <mxPoint x="140" y="78.69976658476645" as="sourcePoint"/>
                        <mxPoint x="140.31999999999994" as="targetPoint"/>
                    </mxGeometry>
                </mxCell>
                <mxCell id="157" value="segment[6]" style="edgeLabel;html=1;align=center;verticalAlign=middle;resizable=0;points=[];rotation=-90;" vertex="1" connectable="0" parent="156">
                    <mxGeometry x="-0.4719" y="1" relative="1" as="geometry">
                        <mxPoint y="-19" as="offset"/>
                    </mxGeometry>
                </mxCell>
                <mxCell id="228" value="" style="endArrow=none;html=1;" edge="1" parent="234">
                    <mxGeometry width="50" height="50" relative="1" as="geometry">
                        <mxPoint x="140" y="206.4397665847664" as="sourcePoint"/>
                        <mxPoint x="140.31999999999994" y="157.16414004913997" as="targetPoint"/>
                    </mxGeometry>
                </mxCell>
                <mxCell id="229" value="sw[0]" style="edgeLabel;html=1;align=center;verticalAlign=middle;resizable=0;points=[];rotation=-90;" vertex="1" connectable="0" parent="228">
                    <mxGeometry x="0.1857" y="1" relative="1" as="geometry">
                        <mxPoint x="1" y="4" as="offset"/>
                    </mxGeometry>
                </mxCell>
                <mxCell id="230" value="" style="endArrow=none;html=1;" edge="1" parent="234">
                    <mxGeometry width="50" height="50" relative="1" as="geometry">
                        <mxPoint x="60" y="206.4397665847664" as="sourcePoint"/>
                        <mxPoint x="60.319999999999936" y="157.16414004913997" as="targetPoint"/>
                    </mxGeometry>
                </mxCell>
                <mxCell id="231" value="sw[2]" style="edgeLabel;html=1;align=center;verticalAlign=middle;resizable=0;points=[];rotation=-90;" vertex="1" connectable="0" parent="230">
                    <mxGeometry x="0.1857" y="1" relative="1" as="geometry">
                        <mxPoint x="1" y="4" as="offset"/>
                    </mxGeometry>
                </mxCell>
                <mxCell id="232" value="" style="endArrow=none;html=1;" edge="1" parent="234">
                    <mxGeometry width="50" height="50" relative="1" as="geometry">
                        <mxPoint x="100" y="206.4397665847664" as="sourcePoint"/>
                        <mxPoint x="100.31999999999994" y="157.16414004913997" as="targetPoint"/>
                    </mxGeometry>
                </mxCell>
                <mxCell id="233" value="sw[1]" style="edgeLabel;html=1;align=center;verticalAlign=middle;resizable=0;points=[];rotation=-90;" vertex="1" connectable="0" parent="232">
                    <mxGeometry x="0.1857" y="1" relative="1" as="geometry">
                        <mxPoint x="1" y="4" as="offset"/>
                    </mxGeometry>
                </mxCell>
                <mxCell id="255" value="" style="group" vertex="1" connectable="0" parent="519">
                    <mxGeometry x="260" y="78.46437346437332" width="160" height="206.4397665847664" as="geometry"/>
                </mxCell>
                <mxCell id="256" value="display_7segment" style="rounded=0;whiteSpace=wrap;html=1;" vertex="1" parent="255">
                    <mxGeometry y="78.69976658476655" width="160" height="78.46437346437342" as="geometry"/>
                </mxCell>
                <mxCell id="257" value="" style="endArrow=none;html=1;exitX=0.123;exitY=0.003;exitDx=0;exitDy=0;exitPerimeter=0;" edge="1" parent="255" source="256">
                    <mxGeometry width="50" height="50" relative="1" as="geometry">
                        <mxPoint x="110" y="29.659533169533166" as="sourcePoint"/>
                        <mxPoint x="20" y="0.2353931203931292" as="targetPoint"/>
                    </mxGeometry>
                </mxCell>
                <mxCell id="258" value="segment[0]" style="edgeLabel;html=1;align=center;verticalAlign=middle;resizable=0;points=[];rotation=-90;" vertex="1" connectable="0" parent="257">
                    <mxGeometry x="-0.4719" y="1" relative="1" as="geometry">
                        <mxPoint y="-19" as="offset"/>
                    </mxGeometry>
                </mxCell>
                <mxCell id="259" value="" style="endArrow=none;html=1;" edge="1" parent="255">
                    <mxGeometry width="50" height="50" relative="1" as="geometry">
                        <mxPoint x="20" y="206.4397665847664" as="sourcePoint"/>
                        <mxPoint x="20.319999999999936" y="157.16414004913997" as="targetPoint"/>
                    </mxGeometry>
                </mxCell>
                <mxCell id="260" value="sw[3]&lt;br&gt;" style="edgeLabel;html=1;align=center;verticalAlign=middle;resizable=0;points=[];rotation=-90;" vertex="1" connectable="0" parent="259">
                    <mxGeometry x="0.1857" y="1" relative="1" as="geometry">
                        <mxPoint x="1" y="4" as="offset"/>
                    </mxGeometry>
                </mxCell>
                <mxCell id="261" value="" style="endArrow=none;html=1;exitX=0.123;exitY=0.003;exitDx=0;exitDy=0;exitPerimeter=0;" edge="1" parent="255">
                    <mxGeometry width="50" height="50" relative="1" as="geometry">
                        <mxPoint x="39.99999999999994" y="78.69976658476645" as="sourcePoint"/>
                        <mxPoint x="40.31999999999999" as="targetPoint"/>
                    </mxGeometry>
                </mxCell>
                <mxCell id="262" value="segment[1]" style="edgeLabel;html=1;align=center;verticalAlign=middle;resizable=0;points=[];rotation=-90;" vertex="1" connectable="0" parent="261">
                    <mxGeometry x="-0.4719" y="1" relative="1" as="geometry">
                        <mxPoint y="-19" as="offset"/>
                    </mxGeometry>
                </mxCell>
                <mxCell id="263" value="" style="endArrow=none;html=1;exitX=0.123;exitY=0.003;exitDx=0;exitDy=0;exitPerimeter=0;" edge="1" parent="255">
                    <mxGeometry width="50" height="50" relative="1" as="geometry">
                        <mxPoint x="60" y="78.69976658476645" as="sourcePoint"/>
                        <mxPoint x="60.319999999999936" as="targetPoint"/>
                    </mxGeometry>
                </mxCell>
                <mxCell id="264" value="segment[2]" style="edgeLabel;html=1;align=center;verticalAlign=middle;resizable=0;points=[];rotation=-90;" vertex="1" connectable="0" parent="263">
                    <mxGeometry x="-0.4719" y="1" relative="1" as="geometry">
                        <mxPoint y="-19" as="offset"/>
                    </mxGeometry>
                </mxCell>
                <mxCell id="265" value="" style="endArrow=none;html=1;exitX=0.123;exitY=0.003;exitDx=0;exitDy=0;exitPerimeter=0;" edge="1" parent="255">
                    <mxGeometry width="50" height="50" relative="1" as="geometry">
                        <mxPoint x="79.75999999999999" y="78.69976658476645" as="sourcePoint"/>
                        <mxPoint x="80.07999999999993" as="targetPoint"/>
                    </mxGeometry>
                </mxCell>
                <mxCell id="266" value="segment[3]" style="edgeLabel;html=1;align=center;verticalAlign=middle;resizable=0;points=[];rotation=-90;" vertex="1" connectable="0" parent="265">
                    <mxGeometry x="-0.4719" y="1" relative="1" as="geometry">
                        <mxPoint y="-19" as="offset"/>
                    </mxGeometry>
                </mxCell>
                <mxCell id="267" value="" style="endArrow=none;html=1;exitX=0.123;exitY=0.003;exitDx=0;exitDy=0;exitPerimeter=0;" edge="1" parent="255">
                    <mxGeometry width="50" height="50" relative="1" as="geometry">
                        <mxPoint x="100" y="78.69976658476645" as="sourcePoint"/>
                        <mxPoint x="100.31999999999994" as="targetPoint"/>
                    </mxGeometry>
                </mxCell>
                <mxCell id="268" value="segment[4]" style="edgeLabel;html=1;align=center;verticalAlign=middle;resizable=0;points=[];rotation=-90;" vertex="1" connectable="0" parent="267">
                    <mxGeometry x="-0.4719" y="1" relative="1" as="geometry">
                        <mxPoint y="-19" as="offset"/>
                    </mxGeometry>
                </mxCell>
                <mxCell id="269" value="" style="endArrow=none;html=1;exitX=0.123;exitY=0.003;exitDx=0;exitDy=0;exitPerimeter=0;" edge="1" parent="255">
                    <mxGeometry width="50" height="50" relative="1" as="geometry">
                        <mxPoint x="120" y="78.69976658476645" as="sourcePoint"/>
                        <mxPoint x="120.31999999999994" as="targetPoint"/>
                    </mxGeometry>
                </mxCell>
                <mxCell id="270" value="segment[5]" style="edgeLabel;html=1;align=center;verticalAlign=middle;resizable=0;points=[];rotation=-90;" vertex="1" connectable="0" parent="269">
                    <mxGeometry x="-0.4719" y="1" relative="1" as="geometry">
                        <mxPoint y="-19" as="offset"/>
                    </mxGeometry>
                </mxCell>
                <mxCell id="271" value="" style="endArrow=none;html=1;exitX=0.123;exitY=0.003;exitDx=0;exitDy=0;exitPerimeter=0;" edge="1" parent="255">
                    <mxGeometry width="50" height="50" relative="1" as="geometry">
                        <mxPoint x="140" y="78.69976658476645" as="sourcePoint"/>
                        <mxPoint x="140.31999999999994" as="targetPoint"/>
                    </mxGeometry>
                </mxCell>
                <mxCell id="272" value="segment[6]" style="edgeLabel;html=1;align=center;verticalAlign=middle;resizable=0;points=[];rotation=-90;" vertex="1" connectable="0" parent="271">
                    <mxGeometry x="-0.4719" y="1" relative="1" as="geometry">
                        <mxPoint y="-19" as="offset"/>
                    </mxGeometry>
                </mxCell>
                <mxCell id="273" value="" style="endArrow=none;html=1;" edge="1" parent="255">
                    <mxGeometry width="50" height="50" relative="1" as="geometry">
                        <mxPoint x="140" y="206.4397665847664" as="sourcePoint"/>
                        <mxPoint x="140.31999999999994" y="157.16414004913997" as="targetPoint"/>
                    </mxGeometry>
                </mxCell>
                <mxCell id="274" value="sw[0]" style="edgeLabel;html=1;align=center;verticalAlign=middle;resizable=0;points=[];rotation=-90;" vertex="1" connectable="0" parent="273">
                    <mxGeometry x="0.1857" y="1" relative="1" as="geometry">
                        <mxPoint x="1" y="4" as="offset"/>
                    </mxGeometry>
                </mxCell>
                <mxCell id="275" value="" style="endArrow=none;html=1;" edge="1" parent="255">
                    <mxGeometry width="50" height="50" relative="1" as="geometry">
                        <mxPoint x="60" y="206.4397665847664" as="sourcePoint"/>
                        <mxPoint x="60.319999999999936" y="157.16414004913997" as="targetPoint"/>
                    </mxGeometry>
                </mxCell>
                <mxCell id="276" value="sw[2]" style="edgeLabel;html=1;align=center;verticalAlign=middle;resizable=0;points=[];rotation=-90;" vertex="1" connectable="0" parent="275">
                    <mxGeometry x="0.1857" y="1" relative="1" as="geometry">
                        <mxPoint x="1" y="4" as="offset"/>
                    </mxGeometry>
                </mxCell>
                <mxCell id="277" value="" style="endArrow=none;html=1;" edge="1" parent="255">
                    <mxGeometry width="50" height="50" relative="1" as="geometry">
                        <mxPoint x="100" y="206.4397665847664" as="sourcePoint"/>
                        <mxPoint x="100.31999999999994" y="157.16414004913997" as="targetPoint"/>
                    </mxGeometry>
                </mxCell>
                <mxCell id="278" value="sw[1]" style="edgeLabel;html=1;align=center;verticalAlign=middle;resizable=0;points=[];rotation=-90;" vertex="1" connectable="0" parent="277">
                    <mxGeometry x="0.1857" y="1" relative="1" as="geometry">
                        <mxPoint x="1" y="4" as="offset"/>
                    </mxGeometry>
                </mxCell>
                <mxCell id="279" value="" style="group" vertex="1" connectable="0" parent="519">
                    <mxGeometry x="460" y="78.46437346437332" width="160" height="206.4397665847664" as="geometry"/>
                </mxCell>
                <mxCell id="280" value="display_7segment" style="rounded=0;whiteSpace=wrap;html=1;" vertex="1" parent="279">
                    <mxGeometry y="78.69976658476655" width="160" height="78.46437346437342" as="geometry"/>
                </mxCell>
                <mxCell id="281" value="" style="endArrow=none;html=1;exitX=0.123;exitY=0.003;exitDx=0;exitDy=0;exitPerimeter=0;" edge="1" parent="279" source="280">
                    <mxGeometry width="50" height="50" relative="1" as="geometry">
                        <mxPoint x="110" y="29.659533169533166" as="sourcePoint"/>
                        <mxPoint x="20" y="0.2353931203931292" as="targetPoint"/>
                    </mxGeometry>
                </mxCell>
                <mxCell id="282" value="segment[0]" style="edgeLabel;html=1;align=center;verticalAlign=middle;resizable=0;points=[];rotation=-90;" vertex="1" connectable="0" parent="281">
                    <mxGeometry x="-0.4719" y="1" relative="1" as="geometry">
                        <mxPoint y="-19" as="offset"/>
                    </mxGeometry>
                </mxCell>
                <mxCell id="283" value="" style="endArrow=none;html=1;" edge="1" parent="279">
                    <mxGeometry width="50" height="50" relative="1" as="geometry">
                        <mxPoint x="20" y="206.4397665847664" as="sourcePoint"/>
                        <mxPoint x="20.319999999999936" y="157.16414004913997" as="targetPoint"/>
                    </mxGeometry>
                </mxCell>
                <mxCell id="284" value="sw[3]&lt;br&gt;" style="edgeLabel;html=1;align=center;verticalAlign=middle;resizable=0;points=[];rotation=-90;" vertex="1" connectable="0" parent="283">
                    <mxGeometry x="0.1857" y="1" relative="1" as="geometry">
                        <mxPoint x="1" y="4" as="offset"/>
                    </mxGeometry>
                </mxCell>
                <mxCell id="285" value="" style="endArrow=none;html=1;exitX=0.123;exitY=0.003;exitDx=0;exitDy=0;exitPerimeter=0;" edge="1" parent="279">
                    <mxGeometry width="50" height="50" relative="1" as="geometry">
                        <mxPoint x="39.99999999999994" y="78.69976658476645" as="sourcePoint"/>
                        <mxPoint x="40.31999999999999" as="targetPoint"/>
                    </mxGeometry>
                </mxCell>
                <mxCell id="286" value="segment[1]" style="edgeLabel;html=1;align=center;verticalAlign=middle;resizable=0;points=[];rotation=-90;" vertex="1" connectable="0" parent="285">
                    <mxGeometry x="-0.4719" y="1" relative="1" as="geometry">
                        <mxPoint y="-19" as="offset"/>
                    </mxGeometry>
                </mxCell>
                <mxCell id="287" value="" style="endArrow=none;html=1;exitX=0.123;exitY=0.003;exitDx=0;exitDy=0;exitPerimeter=0;" edge="1" parent="279">
                    <mxGeometry width="50" height="50" relative="1" as="geometry">
                        <mxPoint x="60" y="78.69976658476645" as="sourcePoint"/>
                        <mxPoint x="60.319999999999936" as="targetPoint"/>
                    </mxGeometry>
                </mxCell>
                <mxCell id="288" value="segment[2]" style="edgeLabel;html=1;align=center;verticalAlign=middle;resizable=0;points=[];rotation=-90;" vertex="1" connectable="0" parent="287">
                    <mxGeometry x="-0.4719" y="1" relative="1" as="geometry">
                        <mxPoint y="-19" as="offset"/>
                    </mxGeometry>
                </mxCell>
                <mxCell id="289" value="" style="endArrow=none;html=1;exitX=0.123;exitY=0.003;exitDx=0;exitDy=0;exitPerimeter=0;" edge="1" parent="279">
                    <mxGeometry width="50" height="50" relative="1" as="geometry">
                        <mxPoint x="79.75999999999999" y="78.69976658476645" as="sourcePoint"/>
                        <mxPoint x="80.07999999999993" as="targetPoint"/>
                    </mxGeometry>
                </mxCell>
                <mxCell id="290" value="segment[3]" style="edgeLabel;html=1;align=center;verticalAlign=middle;resizable=0;points=[];rotation=-90;" vertex="1" connectable="0" parent="289">
                    <mxGeometry x="-0.4719" y="1" relative="1" as="geometry">
                        <mxPoint y="-19" as="offset"/>
                    </mxGeometry>
                </mxCell>
                <mxCell id="291" value="" style="endArrow=none;html=1;exitX=0.123;exitY=0.003;exitDx=0;exitDy=0;exitPerimeter=0;" edge="1" parent="279">
                    <mxGeometry width="50" height="50" relative="1" as="geometry">
                        <mxPoint x="100" y="78.69976658476645" as="sourcePoint"/>
                        <mxPoint x="100.31999999999994" as="targetPoint"/>
                    </mxGeometry>
                </mxCell>
                <mxCell id="292" value="segment[4]" style="edgeLabel;html=1;align=center;verticalAlign=middle;resizable=0;points=[];rotation=-90;" vertex="1" connectable="0" parent="291">
                    <mxGeometry x="-0.4719" y="1" relative="1" as="geometry">
                        <mxPoint y="-19" as="offset"/>
                    </mxGeometry>
                </mxCell>
                <mxCell id="293" value="" style="endArrow=none;html=1;exitX=0.123;exitY=0.003;exitDx=0;exitDy=0;exitPerimeter=0;" edge="1" parent="279">
                    <mxGeometry width="50" height="50" relative="1" as="geometry">
                        <mxPoint x="120" y="78.69976658476645" as="sourcePoint"/>
                        <mxPoint x="120.31999999999994" as="targetPoint"/>
                    </mxGeometry>
                </mxCell>
                <mxCell id="294" value="segment[5]" style="edgeLabel;html=1;align=center;verticalAlign=middle;resizable=0;points=[];rotation=-90;" vertex="1" connectable="0" parent="293">
                    <mxGeometry x="-0.4719" y="1" relative="1" as="geometry">
                        <mxPoint y="-19" as="offset"/>
                    </mxGeometry>
                </mxCell>
                <mxCell id="295" value="" style="endArrow=none;html=1;exitX=0.123;exitY=0.003;exitDx=0;exitDy=0;exitPerimeter=0;" edge="1" parent="279">
                    <mxGeometry width="50" height="50" relative="1" as="geometry">
                        <mxPoint x="140" y="78.69976658476645" as="sourcePoint"/>
                        <mxPoint x="140.31999999999994" as="targetPoint"/>
                    </mxGeometry>
                </mxCell>
                <mxCell id="296" value="segment[6]" style="edgeLabel;html=1;align=center;verticalAlign=middle;resizable=0;points=[];rotation=-90;" vertex="1" connectable="0" parent="295">
                    <mxGeometry x="-0.4719" y="1" relative="1" as="geometry">
                        <mxPoint y="-19" as="offset"/>
                    </mxGeometry>
                </mxCell>
                <mxCell id="297" value="" style="endArrow=none;html=1;" edge="1" parent="279">
                    <mxGeometry width="50" height="50" relative="1" as="geometry">
                        <mxPoint x="140" y="206.4397665847664" as="sourcePoint"/>
                        <mxPoint x="140.31999999999994" y="157.16414004913997" as="targetPoint"/>
                    </mxGeometry>
                </mxCell>
                <mxCell id="298" value="sw[0]" style="edgeLabel;html=1;align=center;verticalAlign=middle;resizable=0;points=[];rotation=-90;" vertex="1" connectable="0" parent="297">
                    <mxGeometry x="0.1857" y="1" relative="1" as="geometry">
                        <mxPoint x="1" y="4" as="offset"/>
                    </mxGeometry>
                </mxCell>
                <mxCell id="299" value="" style="endArrow=none;html=1;" edge="1" parent="279">
                    <mxGeometry width="50" height="50" relative="1" as="geometry">
                        <mxPoint x="60" y="206.4397665847664" as="sourcePoint"/>
                        <mxPoint x="60.319999999999936" y="157.16414004913997" as="targetPoint"/>
                    </mxGeometry>
                </mxCell>
                <mxCell id="300" value="sw[2]" style="edgeLabel;html=1;align=center;verticalAlign=middle;resizable=0;points=[];rotation=-90;" vertex="1" connectable="0" parent="299">
                    <mxGeometry x="0.1857" y="1" relative="1" as="geometry">
                        <mxPoint x="1" y="4" as="offset"/>
                    </mxGeometry>
                </mxCell>
                <mxCell id="301" value="" style="endArrow=none;html=1;" edge="1" parent="279">
                    <mxGeometry width="50" height="50" relative="1" as="geometry">
                        <mxPoint x="100" y="206.4397665847664" as="sourcePoint"/>
                        <mxPoint x="100.31999999999994" y="157.16414004913997" as="targetPoint"/>
                    </mxGeometry>
                </mxCell>
                <mxCell id="302" value="sw[1]" style="edgeLabel;html=1;align=center;verticalAlign=middle;resizable=0;points=[];rotation=-90;" vertex="1" connectable="0" parent="301">
                    <mxGeometry x="0.1857" y="1" relative="1" as="geometry">
                        <mxPoint x="1" y="4" as="offset"/>
                    </mxGeometry>
                </mxCell>
                <mxCell id="303" value="" style="group" vertex="1" connectable="0" parent="519">
                    <mxGeometry x="660" y="78.46437346437332" width="160" height="206.4397665847664" as="geometry"/>
                </mxCell>
                <mxCell id="304" value="display_7segment" style="rounded=0;whiteSpace=wrap;html=1;" vertex="1" parent="303">
                    <mxGeometry y="78.69976658476655" width="160" height="78.46437346437342" as="geometry"/>
                </mxCell>
                <mxCell id="305" value="" style="endArrow=none;html=1;exitX=0.123;exitY=0.003;exitDx=0;exitDy=0;exitPerimeter=0;" edge="1" parent="303" source="304">
                    <mxGeometry width="50" height="50" relative="1" as="geometry">
                        <mxPoint x="110" y="29.659533169533166" as="sourcePoint"/>
                        <mxPoint x="20" y="0.2353931203931292" as="targetPoint"/>
                    </mxGeometry>
                </mxCell>
                <mxCell id="306" value="segment[0]" style="edgeLabel;html=1;align=center;verticalAlign=middle;resizable=0;points=[];rotation=-90;" vertex="1" connectable="0" parent="305">
                    <mxGeometry x="-0.4719" y="1" relative="1" as="geometry">
                        <mxPoint y="-19" as="offset"/>
                    </mxGeometry>
                </mxCell>
                <mxCell id="307" value="" style="endArrow=none;html=1;" edge="1" parent="303">
                    <mxGeometry width="50" height="50" relative="1" as="geometry">
                        <mxPoint x="20" y="206.4397665847664" as="sourcePoint"/>
                        <mxPoint x="20.319999999999936" y="157.16414004913997" as="targetPoint"/>
                    </mxGeometry>
                </mxCell>
                <mxCell id="308" value="sw[3]&lt;br&gt;" style="edgeLabel;html=1;align=center;verticalAlign=middle;resizable=0;points=[];rotation=-90;" vertex="1" connectable="0" parent="307">
                    <mxGeometry x="0.1857" y="1" relative="1" as="geometry">
                        <mxPoint x="1" y="4" as="offset"/>
                    </mxGeometry>
                </mxCell>
                <mxCell id="309" value="" style="endArrow=none;html=1;exitX=0.123;exitY=0.003;exitDx=0;exitDy=0;exitPerimeter=0;" edge="1" parent="303">
                    <mxGeometry width="50" height="50" relative="1" as="geometry">
                        <mxPoint x="39.99999999999994" y="78.69976658476645" as="sourcePoint"/>
                        <mxPoint x="40.31999999999999" as="targetPoint"/>
                    </mxGeometry>
                </mxCell>
                <mxCell id="310" value="segment[1]" style="edgeLabel;html=1;align=center;verticalAlign=middle;resizable=0;points=[];rotation=-90;" vertex="1" connectable="0" parent="309">
                    <mxGeometry x="-0.4719" y="1" relative="1" as="geometry">
                        <mxPoint y="-19" as="offset"/>
                    </mxGeometry>
                </mxCell>
                <mxCell id="311" value="" style="endArrow=none;html=1;exitX=0.123;exitY=0.003;exitDx=0;exitDy=0;exitPerimeter=0;" edge="1" parent="303">
                    <mxGeometry width="50" height="50" relative="1" as="geometry">
                        <mxPoint x="60" y="78.69976658476645" as="sourcePoint"/>
                        <mxPoint x="60.319999999999936" as="targetPoint"/>
                    </mxGeometry>
                </mxCell>
                <mxCell id="312" value="segment[2]" style="edgeLabel;html=1;align=center;verticalAlign=middle;resizable=0;points=[];rotation=-90;" vertex="1" connectable="0" parent="311">
                    <mxGeometry x="-0.4719" y="1" relative="1" as="geometry">
                        <mxPoint y="-19" as="offset"/>
                    </mxGeometry>
                </mxCell>
                <mxCell id="313" value="" style="endArrow=none;html=1;exitX=0.123;exitY=0.003;exitDx=0;exitDy=0;exitPerimeter=0;" edge="1" parent="303">
                    <mxGeometry width="50" height="50" relative="1" as="geometry">
                        <mxPoint x="79.75999999999999" y="78.69976658476645" as="sourcePoint"/>
                        <mxPoint x="80.07999999999993" as="targetPoint"/>
                    </mxGeometry>
                </mxCell>
                <mxCell id="314" value="segment[3]" style="edgeLabel;html=1;align=center;verticalAlign=middle;resizable=0;points=[];rotation=-90;" vertex="1" connectable="0" parent="313">
                    <mxGeometry x="-0.4719" y="1" relative="1" as="geometry">
                        <mxPoint y="-19" as="offset"/>
                    </mxGeometry>
                </mxCell>
                <mxCell id="315" value="" style="endArrow=none;html=1;exitX=0.123;exitY=0.003;exitDx=0;exitDy=0;exitPerimeter=0;" edge="1" parent="303">
                    <mxGeometry width="50" height="50" relative="1" as="geometry">
                        <mxPoint x="100" y="78.69976658476645" as="sourcePoint"/>
                        <mxPoint x="100.31999999999994" as="targetPoint"/>
                    </mxGeometry>
                </mxCell>
                <mxCell id="316" value="segment[4]" style="edgeLabel;html=1;align=center;verticalAlign=middle;resizable=0;points=[];rotation=-90;" vertex="1" connectable="0" parent="315">
                    <mxGeometry x="-0.4719" y="1" relative="1" as="geometry">
                        <mxPoint y="-19" as="offset"/>
                    </mxGeometry>
                </mxCell>
                <mxCell id="317" value="" style="endArrow=none;html=1;exitX=0.123;exitY=0.003;exitDx=0;exitDy=0;exitPerimeter=0;" edge="1" parent="303">
                    <mxGeometry width="50" height="50" relative="1" as="geometry">
                        <mxPoint x="120" y="78.69976658476645" as="sourcePoint"/>
                        <mxPoint x="120.31999999999994" as="targetPoint"/>
                    </mxGeometry>
                </mxCell>
                <mxCell id="318" value="segment[5]" style="edgeLabel;html=1;align=center;verticalAlign=middle;resizable=0;points=[];rotation=-90;" vertex="1" connectable="0" parent="317">
                    <mxGeometry x="-0.4719" y="1" relative="1" as="geometry">
                        <mxPoint y="-19" as="offset"/>
                    </mxGeometry>
                </mxCell>
                <mxCell id="319" value="" style="endArrow=none;html=1;exitX=0.123;exitY=0.003;exitDx=0;exitDy=0;exitPerimeter=0;" edge="1" parent="303">
                    <mxGeometry width="50" height="50" relative="1" as="geometry">
                        <mxPoint x="140" y="78.69976658476645" as="sourcePoint"/>
                        <mxPoint x="140.31999999999994" as="targetPoint"/>
                    </mxGeometry>
                </mxCell>
                <mxCell id="320" value="segment[6]" style="edgeLabel;html=1;align=center;verticalAlign=middle;resizable=0;points=[];rotation=-90;" vertex="1" connectable="0" parent="319">
                    <mxGeometry x="-0.4719" y="1" relative="1" as="geometry">
                        <mxPoint y="-19" as="offset"/>
                    </mxGeometry>
                </mxCell>
                <mxCell id="321" value="" style="endArrow=none;html=1;" edge="1" parent="303">
                    <mxGeometry width="50" height="50" relative="1" as="geometry">
                        <mxPoint x="140" y="206.4397665847664" as="sourcePoint"/>
                        <mxPoint x="140.31999999999994" y="157.16414004913997" as="targetPoint"/>
                    </mxGeometry>
                </mxCell>
                <mxCell id="322" value="sw[0]" style="edgeLabel;html=1;align=center;verticalAlign=middle;resizable=0;points=[];rotation=-90;" vertex="1" connectable="0" parent="321">
                    <mxGeometry x="0.1857" y="1" relative="1" as="geometry">
                        <mxPoint x="1" y="4" as="offset"/>
                    </mxGeometry>
                </mxCell>
                <mxCell id="323" value="" style="endArrow=none;html=1;" edge="1" parent="303">
                    <mxGeometry width="50" height="50" relative="1" as="geometry">
                        <mxPoint x="60" y="206.4397665847664" as="sourcePoint"/>
                        <mxPoint x="60.319999999999936" y="157.16414004913997" as="targetPoint"/>
                    </mxGeometry>
                </mxCell>
                <mxCell id="324" value="sw[2]" style="edgeLabel;html=1;align=center;verticalAlign=middle;resizable=0;points=[];rotation=-90;" vertex="1" connectable="0" parent="323">
                    <mxGeometry x="0.1857" y="1" relative="1" as="geometry">
                        <mxPoint x="1" y="4" as="offset"/>
                    </mxGeometry>
                </mxCell>
                <mxCell id="325" value="" style="endArrow=none;html=1;" edge="1" parent="303">
                    <mxGeometry width="50" height="50" relative="1" as="geometry">
                        <mxPoint x="100" y="206.4397665847664" as="sourcePoint"/>
                        <mxPoint x="100.31999999999994" y="157.16414004913997" as="targetPoint"/>
                    </mxGeometry>
                </mxCell>
                <mxCell id="326" value="sw[1]" style="edgeLabel;html=1;align=center;verticalAlign=middle;resizable=0;points=[];rotation=-90;" vertex="1" connectable="0" parent="325">
                    <mxGeometry x="0.1857" y="1" relative="1" as="geometry">
                        <mxPoint x="1" y="4" as="offset"/>
                    </mxGeometry>
                </mxCell>
            </root>
        </mxGraphModel>
    </diagram>
</mxfile>